%TF.GenerationSoftware,KiCad,Pcbnew,6.0.6*%
%TF.CreationDate,2022-08-30T17:07:56+02:00*%
%TF.ProjectId,rf_biscuit,72665f62-6973-4637-9569-742e6b696361,rev?*%
%TF.SameCoordinates,Original*%
%TF.FileFunction,Soldermask,Bot*%
%TF.FilePolarity,Negative*%
%FSLAX46Y46*%
G04 Gerber Fmt 4.6, Leading zero omitted, Abs format (unit mm)*
G04 Created by KiCad (PCBNEW 6.0.6) date 2022-08-30 17:07:56*
%MOMM*%
%LPD*%
G01*
G04 APERTURE LIST*
G04 Aperture macros list*
%AMRoundRect*
0 Rectangle with rounded corners*
0 $1 Rounding radius*
0 $2 $3 $4 $5 $6 $7 $8 $9 X,Y pos of 4 corners*
0 Add a 4 corners polygon primitive as box body*
4,1,4,$2,$3,$4,$5,$6,$7,$8,$9,$2,$3,0*
0 Add four circle primitives for the rounded corners*
1,1,$1+$1,$2,$3*
1,1,$1+$1,$4,$5*
1,1,$1+$1,$6,$7*
1,1,$1+$1,$8,$9*
0 Add four rect primitives between the rounded corners*
20,1,$1+$1,$2,$3,$4,$5,0*
20,1,$1+$1,$4,$5,$6,$7,0*
20,1,$1+$1,$6,$7,$8,$9,0*
20,1,$1+$1,$8,$9,$2,$3,0*%
G04 Aperture macros list end*
%ADD10C,0.300000*%
%ADD11C,0.250000*%
%ADD12RoundRect,0.200000X2.100000X-0.675000X2.100000X0.675000X-2.100000X0.675000X-2.100000X-0.675000X0*%
%ADD13RoundRect,0.200000X-2.100000X0.675000X-2.100000X-0.675000X2.100000X-0.675000X2.100000X0.675000X0*%
%ADD14C,3.600000*%
G04 APERTURE END LIST*
D10*
X41071428Y-87904761D02*
X41071428Y-85904761D01*
X41071428Y-87809523D02*
X41261904Y-87904761D01*
X41642857Y-87904761D01*
X41833333Y-87809523D01*
X41928571Y-87714285D01*
X42023809Y-87523809D01*
X42023809Y-86952380D01*
X41928571Y-86761904D01*
X41833333Y-86666666D01*
X41642857Y-86571428D01*
X41261904Y-86571428D01*
X41071428Y-86666666D01*
X39452380Y-86857142D02*
X39166666Y-86952380D01*
X39071428Y-87047619D01*
X38976190Y-87238095D01*
X38976190Y-87523809D01*
X39071428Y-87714285D01*
X39166666Y-87809523D01*
X39357142Y-87904761D01*
X40119047Y-87904761D01*
X40119047Y-85904761D01*
X39452380Y-85904761D01*
X39261904Y-86000000D01*
X39166666Y-86095238D01*
X39071428Y-86285714D01*
X39071428Y-86476190D01*
X39166666Y-86666666D01*
X39261904Y-86761904D01*
X39452380Y-86857142D01*
X40119047Y-86857142D01*
D11*
X50845238Y-100802142D02*
X50892857Y-100849761D01*
X51035714Y-100897380D01*
X51130952Y-100897380D01*
X51273809Y-100849761D01*
X51369047Y-100754523D01*
X51416666Y-100659285D01*
X51464285Y-100468809D01*
X51464285Y-100325952D01*
X51416666Y-100135476D01*
X51369047Y-100040238D01*
X51273809Y-99945000D01*
X51130952Y-99897380D01*
X51035714Y-99897380D01*
X50892857Y-99945000D01*
X50845238Y-99992619D01*
X49845238Y-100802142D02*
X49892857Y-100849761D01*
X50035714Y-100897380D01*
X50130952Y-100897380D01*
X50273809Y-100849761D01*
X50369047Y-100754523D01*
X50416666Y-100659285D01*
X50464285Y-100468809D01*
X50464285Y-100325952D01*
X50416666Y-100135476D01*
X50369047Y-100040238D01*
X50273809Y-99945000D01*
X50130952Y-99897380D01*
X50035714Y-99897380D01*
X49892857Y-99945000D01*
X49845238Y-99992619D01*
X48321428Y-100373571D02*
X48178571Y-100421190D01*
X48130952Y-100468809D01*
X48083333Y-100564047D01*
X48083333Y-100706904D01*
X48130952Y-100802142D01*
X48178571Y-100849761D01*
X48273809Y-100897380D01*
X48654761Y-100897380D01*
X48654761Y-99897380D01*
X48321428Y-99897380D01*
X48226190Y-99945000D01*
X48178571Y-99992619D01*
X48130952Y-100087857D01*
X48130952Y-100183095D01*
X48178571Y-100278333D01*
X48226190Y-100325952D01*
X48321428Y-100373571D01*
X48654761Y-100373571D01*
X47464285Y-100421190D02*
X47464285Y-100897380D01*
X47797619Y-99897380D02*
X47464285Y-100421190D01*
X47130952Y-99897380D01*
X46797619Y-100516428D02*
X46035714Y-100516428D01*
X45607142Y-100849761D02*
X45464285Y-100897380D01*
X45226190Y-100897380D01*
X45130952Y-100849761D01*
X45083333Y-100802142D01*
X45035714Y-100706904D01*
X45035714Y-100611666D01*
X45083333Y-100516428D01*
X45130952Y-100468809D01*
X45226190Y-100421190D01*
X45416666Y-100373571D01*
X45511904Y-100325952D01*
X45559523Y-100278333D01*
X45607142Y-100183095D01*
X45607142Y-100087857D01*
X45559523Y-99992619D01*
X45511904Y-99945000D01*
X45416666Y-99897380D01*
X45178571Y-99897380D01*
X45035714Y-99945000D01*
X44654761Y-100611666D02*
X44178571Y-100611666D01*
X44750000Y-100897380D02*
X44416666Y-99897380D01*
X44083333Y-100897380D01*
X43083333Y-99897380D02*
X42464285Y-99897380D01*
X42797619Y-100278333D01*
X42654761Y-100278333D01*
X42559523Y-100325952D01*
X42511904Y-100373571D01*
X42464285Y-100468809D01*
X42464285Y-100706904D01*
X42511904Y-100802142D01*
X42559523Y-100849761D01*
X42654761Y-100897380D01*
X42940476Y-100897380D01*
X43035714Y-100849761D01*
X43083333Y-100802142D01*
X42035714Y-100802142D02*
X41988095Y-100849761D01*
X42035714Y-100897380D01*
X42083333Y-100849761D01*
X42035714Y-100802142D01*
X42035714Y-100897380D01*
X41369047Y-99897380D02*
X41273809Y-99897380D01*
X41178571Y-99945000D01*
X41130952Y-99992619D01*
X41083333Y-100087857D01*
X41035714Y-100278333D01*
X41035714Y-100516428D01*
X41083333Y-100706904D01*
X41130952Y-100802142D01*
X41178571Y-100849761D01*
X41273809Y-100897380D01*
X41369047Y-100897380D01*
X41464285Y-100849761D01*
X41511904Y-100802142D01*
X41559523Y-100706904D01*
X41607142Y-100516428D01*
X41607142Y-100278333D01*
X41559523Y-100087857D01*
X41511904Y-99992619D01*
X41464285Y-99945000D01*
X41369047Y-99897380D01*
X56630952Y-102888333D02*
X56678571Y-102840714D01*
X56773809Y-102697857D01*
X56821428Y-102602619D01*
X56869047Y-102459761D01*
X56916666Y-102221666D01*
X56916666Y-102031190D01*
X56869047Y-101793095D01*
X56821428Y-101650238D01*
X56773809Y-101555000D01*
X56678571Y-101412142D01*
X56630952Y-101364523D01*
X55821428Y-102459761D02*
X55916666Y-102507380D01*
X56107142Y-102507380D01*
X56202380Y-102459761D01*
X56250000Y-102412142D01*
X56297619Y-102316904D01*
X56297619Y-102031190D01*
X56250000Y-101935952D01*
X56202380Y-101888333D01*
X56107142Y-101840714D01*
X55916666Y-101840714D01*
X55821428Y-101888333D01*
X55488095Y-102888333D02*
X55440476Y-102840714D01*
X55345238Y-102697857D01*
X55297619Y-102602619D01*
X55250000Y-102459761D01*
X55202380Y-102221666D01*
X55202380Y-102031190D01*
X55250000Y-101793095D01*
X55297619Y-101650238D01*
X55345238Y-101555000D01*
X55440476Y-101412142D01*
X55488095Y-101364523D01*
X53773809Y-101507380D02*
X53583333Y-101507380D01*
X53488095Y-101555000D01*
X53392857Y-101650238D01*
X53345238Y-101840714D01*
X53345238Y-102174047D01*
X53392857Y-102364523D01*
X53488095Y-102459761D01*
X53583333Y-102507380D01*
X53773809Y-102507380D01*
X53869047Y-102459761D01*
X53964285Y-102364523D01*
X54011904Y-102174047D01*
X54011904Y-101840714D01*
X53964285Y-101650238D01*
X53869047Y-101555000D01*
X53773809Y-101507380D01*
X53059523Y-101840714D02*
X52678571Y-101840714D01*
X52916666Y-101507380D02*
X52916666Y-102364523D01*
X52869047Y-102459761D01*
X52773809Y-102507380D01*
X52678571Y-102507380D01*
X51964285Y-102459761D02*
X52059523Y-102507380D01*
X52250000Y-102507380D01*
X52345238Y-102459761D01*
X52392857Y-102364523D01*
X52392857Y-101983571D01*
X52345238Y-101888333D01*
X52250000Y-101840714D01*
X52059523Y-101840714D01*
X51964285Y-101888333D01*
X51916666Y-101983571D01*
X51916666Y-102078809D01*
X52392857Y-102174047D01*
X51345238Y-102507380D02*
X51440476Y-102459761D01*
X51488095Y-102364523D01*
X51488095Y-101507380D01*
X50821428Y-102507380D02*
X50916666Y-102459761D01*
X50964285Y-102412142D01*
X51011904Y-102316904D01*
X51011904Y-102031190D01*
X50964285Y-101935952D01*
X50916666Y-101888333D01*
X50821428Y-101840714D01*
X50678571Y-101840714D01*
X50583333Y-101888333D01*
X50535714Y-101935952D01*
X50488095Y-102031190D01*
X50488095Y-102316904D01*
X50535714Y-102412142D01*
X50583333Y-102459761D01*
X50678571Y-102507380D01*
X50821428Y-102507380D01*
X48916666Y-102459761D02*
X49011904Y-102507380D01*
X49202380Y-102507380D01*
X49297619Y-102459761D01*
X49345238Y-102364523D01*
X49345238Y-101983571D01*
X49297619Y-101888333D01*
X49202380Y-101840714D01*
X49011904Y-101840714D01*
X48916666Y-101888333D01*
X48869047Y-101983571D01*
X48869047Y-102078809D01*
X49345238Y-102174047D01*
X47916666Y-101555000D02*
X48011904Y-101507380D01*
X48154761Y-101507380D01*
X48297619Y-101555000D01*
X48392857Y-101650238D01*
X48440476Y-101745476D01*
X48488095Y-101935952D01*
X48488095Y-102078809D01*
X48440476Y-102269285D01*
X48392857Y-102364523D01*
X48297619Y-102459761D01*
X48154761Y-102507380D01*
X48059523Y-102507380D01*
X47916666Y-102459761D01*
X47869047Y-102412142D01*
X47869047Y-102078809D01*
X48059523Y-102078809D01*
X47059523Y-102459761D02*
X47154761Y-102507380D01*
X47345238Y-102507380D01*
X47440476Y-102459761D01*
X47488095Y-102364523D01*
X47488095Y-101983571D01*
X47440476Y-101888333D01*
X47345238Y-101840714D01*
X47154761Y-101840714D01*
X47059523Y-101888333D01*
X47011904Y-101983571D01*
X47011904Y-102078809D01*
X47488095Y-102174047D01*
X46583333Y-101840714D02*
X46583333Y-102507380D01*
X46583333Y-101935952D02*
X46535714Y-101888333D01*
X46440476Y-101840714D01*
X46297619Y-101840714D01*
X46202380Y-101888333D01*
X46154761Y-101983571D01*
X46154761Y-102507380D01*
X45630952Y-102459761D02*
X45630952Y-102507380D01*
X45678571Y-102602619D01*
X45726190Y-102650238D01*
X44440476Y-102507380D02*
X44440476Y-101507380D01*
X44011904Y-102507380D02*
X44011904Y-101983571D01*
X44059523Y-101888333D01*
X44154761Y-101840714D01*
X44297619Y-101840714D01*
X44392857Y-101888333D01*
X44440476Y-101935952D01*
X43535714Y-101840714D02*
X43535714Y-102507380D01*
X43535714Y-101935952D02*
X43488095Y-101888333D01*
X43392857Y-101840714D01*
X43250000Y-101840714D01*
X43154761Y-101888333D01*
X43107142Y-101983571D01*
X43107142Y-102507380D01*
X42202380Y-102459761D02*
X42297619Y-102507380D01*
X42488095Y-102507380D01*
X42583333Y-102459761D01*
X42630952Y-102412142D01*
X42678571Y-102316904D01*
X42678571Y-102031190D01*
X42630952Y-101935952D01*
X42583333Y-101888333D01*
X42488095Y-101840714D01*
X42297619Y-101840714D01*
X42202380Y-101888333D01*
X41773809Y-102507380D02*
X41773809Y-101507380D01*
X41345238Y-102507380D02*
X41345238Y-101983571D01*
X41392857Y-101888333D01*
X41488095Y-101840714D01*
X41630952Y-101840714D01*
X41726190Y-101888333D01*
X41773809Y-101935952D01*
X40107142Y-102507380D02*
X40107142Y-101507380D01*
X39869047Y-101507380D01*
X39726190Y-101555000D01*
X39630952Y-101650238D01*
X39583333Y-101745476D01*
X39535714Y-101935952D01*
X39535714Y-102078809D01*
X39583333Y-102269285D01*
X39630952Y-102364523D01*
X39726190Y-102459761D01*
X39869047Y-102507380D01*
X40107142Y-102507380D01*
X38535714Y-102412142D02*
X38583333Y-102459761D01*
X38726190Y-102507380D01*
X38821428Y-102507380D01*
X38964285Y-102459761D01*
X39059523Y-102364523D01*
X39107142Y-102269285D01*
X39154761Y-102078809D01*
X39154761Y-101935952D01*
X39107142Y-101745476D01*
X39059523Y-101650238D01*
X38964285Y-101555000D01*
X38821428Y-101507380D01*
X38726190Y-101507380D01*
X38583333Y-101555000D01*
X38535714Y-101602619D01*
X37678571Y-101840714D02*
X37678571Y-102507380D01*
X37916666Y-101459761D02*
X38154761Y-102174047D01*
X37535714Y-102174047D01*
X37154761Y-102507380D02*
X37154761Y-101507380D01*
X37154761Y-101983571D02*
X36583333Y-101983571D01*
X36583333Y-102507380D02*
X36583333Y-101507380D01*
X36107142Y-102507380D02*
X36107142Y-101507380D01*
X35726190Y-101507380D01*
X35630952Y-101555000D01*
X35583333Y-101602619D01*
X35535714Y-101697857D01*
X35535714Y-101840714D01*
X35583333Y-101935952D01*
X35630952Y-101983571D01*
X35726190Y-102031190D01*
X36107142Y-102031190D01*
D10*
X42083333Y-90654761D02*
X42083333Y-88654761D01*
X41892857Y-89892857D02*
X41321428Y-90654761D01*
X41321428Y-89321428D02*
X42083333Y-90083333D01*
X40464285Y-90654761D02*
X40464285Y-88654761D01*
X39797619Y-90083333D01*
X39130952Y-88654761D01*
X39130952Y-90654761D01*
X38178571Y-90654761D02*
X38178571Y-88654761D01*
X38178571Y-89607142D02*
X37035714Y-89607142D01*
X37035714Y-90654761D02*
X37035714Y-88654761D01*
X36273809Y-89321428D02*
X35226190Y-89321428D01*
X36273809Y-90654761D01*
X35226190Y-90654761D01*
X57047619Y-94473333D02*
X56095238Y-94473333D01*
X57238095Y-95044761D02*
X56571428Y-93044761D01*
X55904761Y-95044761D01*
X55523809Y-93044761D02*
X54380952Y-93044761D01*
X54952380Y-95044761D02*
X54952380Y-93044761D01*
X54000000Y-93044761D02*
X52857142Y-93044761D01*
X53428571Y-95044761D02*
X53428571Y-93044761D01*
X52190476Y-95044761D02*
X52190476Y-93044761D01*
X51047619Y-95044761D01*
X51047619Y-93044761D01*
X54857142Y-97217142D02*
X54571428Y-97312380D01*
X54476190Y-97407619D01*
X54380952Y-97598095D01*
X54380952Y-97883809D01*
X54476190Y-98074285D01*
X54571428Y-98169523D01*
X54761904Y-98264761D01*
X55523809Y-98264761D01*
X55523809Y-96264761D01*
X54857142Y-96264761D01*
X54666666Y-96360000D01*
X54571428Y-96455238D01*
X54476190Y-96645714D01*
X54476190Y-96836190D01*
X54571428Y-97026666D01*
X54666666Y-97121904D01*
X54857142Y-97217142D01*
X55523809Y-97217142D01*
X53523809Y-98264761D02*
X53523809Y-96264761D01*
X52761904Y-96264761D01*
X52571428Y-96360000D01*
X52476190Y-96455238D01*
X52380952Y-96645714D01*
X52380952Y-96931428D01*
X52476190Y-97121904D01*
X52571428Y-97217142D01*
X52761904Y-97312380D01*
X53523809Y-97312380D01*
X56285714Y-83428571D02*
X56785714Y-82714285D01*
X57142857Y-83428571D02*
X57142857Y-81928571D01*
X56571428Y-81928571D01*
X56428571Y-82000000D01*
X56357142Y-82071428D01*
X56285714Y-82214285D01*
X56285714Y-82428571D01*
X56357142Y-82571428D01*
X56428571Y-82642857D01*
X56571428Y-82714285D01*
X57142857Y-82714285D01*
X55142857Y-82642857D02*
X55642857Y-82642857D01*
X55642857Y-83428571D02*
X55642857Y-81928571D01*
X54928571Y-81928571D01*
X52714285Y-82642857D02*
X52500000Y-82714285D01*
X52428571Y-82785714D01*
X52357142Y-82928571D01*
X52357142Y-83142857D01*
X52428571Y-83285714D01*
X52500000Y-83357142D01*
X52642857Y-83428571D01*
X53214285Y-83428571D01*
X53214285Y-81928571D01*
X52714285Y-81928571D01*
X52571428Y-82000000D01*
X52500000Y-82071428D01*
X52428571Y-82214285D01*
X52428571Y-82357142D01*
X52500000Y-82500000D01*
X52571428Y-82571428D01*
X52714285Y-82642857D01*
X53214285Y-82642857D01*
X51714285Y-83428571D02*
X51714285Y-81928571D01*
X51071428Y-83357142D02*
X50857142Y-83428571D01*
X50500000Y-83428571D01*
X50357142Y-83357142D01*
X50285714Y-83285714D01*
X50214285Y-83142857D01*
X50214285Y-83000000D01*
X50285714Y-82857142D01*
X50357142Y-82785714D01*
X50500000Y-82714285D01*
X50785714Y-82642857D01*
X50928571Y-82571428D01*
X51000000Y-82500000D01*
X51071428Y-82357142D01*
X51071428Y-82214285D01*
X51000000Y-82071428D01*
X50928571Y-82000000D01*
X50785714Y-81928571D01*
X50428571Y-81928571D01*
X50214285Y-82000000D01*
X48714285Y-83285714D02*
X48785714Y-83357142D01*
X49000000Y-83428571D01*
X49142857Y-83428571D01*
X49357142Y-83357142D01*
X49500000Y-83214285D01*
X49571428Y-83071428D01*
X49642857Y-82785714D01*
X49642857Y-82571428D01*
X49571428Y-82285714D01*
X49500000Y-82142857D01*
X49357142Y-82000000D01*
X49142857Y-81928571D01*
X49000000Y-81928571D01*
X48785714Y-82000000D01*
X48714285Y-82071428D01*
X48071428Y-81928571D02*
X48071428Y-83142857D01*
X48000000Y-83285714D01*
X47928571Y-83357142D01*
X47785714Y-83428571D01*
X47500000Y-83428571D01*
X47357142Y-83357142D01*
X47285714Y-83285714D01*
X47214285Y-83142857D01*
X47214285Y-81928571D01*
X46500000Y-83428571D02*
X46500000Y-81928571D01*
X46000000Y-81928571D02*
X45142857Y-81928571D01*
X45571428Y-83428571D02*
X45571428Y-81928571D01*
X42642857Y-83428571D02*
X43142857Y-82714285D01*
X43500000Y-83428571D02*
X43500000Y-81928571D01*
X42928571Y-81928571D01*
X42785714Y-82000000D01*
X42714285Y-82071428D01*
X42642857Y-82214285D01*
X42642857Y-82428571D01*
X42714285Y-82571428D01*
X42785714Y-82642857D01*
X42928571Y-82714285D01*
X43500000Y-82714285D01*
X41428571Y-83357142D02*
X41571428Y-83428571D01*
X41857142Y-83428571D01*
X42000000Y-83357142D01*
X42071428Y-83214285D01*
X42071428Y-82642857D01*
X42000000Y-82500000D01*
X41857142Y-82428571D01*
X41571428Y-82428571D01*
X41428571Y-82500000D01*
X41357142Y-82642857D01*
X41357142Y-82785714D01*
X42071428Y-82928571D01*
X40857142Y-82428571D02*
X40500000Y-83428571D01*
X40142857Y-82428571D01*
X39571428Y-83285714D02*
X39500000Y-83357142D01*
X39571428Y-83428571D01*
X39642857Y-83357142D01*
X39571428Y-83285714D01*
X39571428Y-83428571D01*
X37928571Y-82428571D02*
X37357142Y-82428571D01*
X37714285Y-81928571D02*
X37714285Y-83214285D01*
X37642857Y-83357142D01*
X37500000Y-83428571D01*
X37357142Y-83428571D01*
X36857142Y-83428571D02*
X36857142Y-81928571D01*
X36857142Y-82500000D02*
X36714285Y-82428571D01*
X36428571Y-82428571D01*
X36285714Y-82500000D01*
X36214285Y-82571428D01*
X36142857Y-82714285D01*
X36142857Y-83142857D01*
X36214285Y-83285714D01*
X36285714Y-83357142D01*
X36428571Y-83428571D01*
X36714285Y-83428571D01*
X36857142Y-83357142D01*
X34857142Y-83428571D02*
X34857142Y-81928571D01*
X34857142Y-83357142D02*
X35000000Y-83428571D01*
X35285714Y-83428571D01*
X35428571Y-83357142D01*
X35500000Y-83285714D01*
X35571428Y-83142857D01*
X35571428Y-82714285D01*
X35500000Y-82571428D01*
X35428571Y-82500000D01*
X35285714Y-82428571D01*
X35000000Y-82428571D01*
X34857142Y-82500000D01*
X48880952Y-95044761D02*
X49833333Y-95044761D01*
X49833333Y-93044761D01*
X48214285Y-95044761D02*
X48214285Y-93044761D01*
X47452380Y-93044761D01*
X47261904Y-93140000D01*
X47166666Y-93235238D01*
X47071428Y-93425714D01*
X47071428Y-93711428D01*
X47166666Y-93901904D01*
X47261904Y-93997142D01*
X47452380Y-94092380D01*
X48214285Y-94092380D01*
X50071428Y-98264761D02*
X50071428Y-96264761D01*
X50071428Y-97217142D02*
X48928571Y-97217142D01*
X48928571Y-98264761D02*
X48928571Y-96264761D01*
X47976190Y-98264761D02*
X47976190Y-96264761D01*
X47214285Y-96264761D01*
X47023809Y-96360000D01*
X46928571Y-96455238D01*
X46833333Y-96645714D01*
X46833333Y-96931428D01*
X46928571Y-97121904D01*
X47023809Y-97217142D01*
X47214285Y-97312380D01*
X47976190Y-97312380D01*
D12*
%TO.C,P2*%
X62000000Y-89275000D03*
X62000000Y-94925000D03*
%TD*%
D13*
%TO.C,P1*%
X30000000Y-94825000D03*
X30000000Y-89175000D03*
%TD*%
D14*
%TO.C,H4*%
X31000000Y-83500000D03*
%TD*%
%TO.C,H3*%
X31000000Y-100500000D03*
%TD*%
%TO.C,H2*%
X61000000Y-83500000D03*
%TD*%
%TO.C,H1*%
X61000000Y-100500000D03*
%TD*%
G36*
X45265931Y-88020002D02*
G01*
X45286905Y-88036905D01*
X45410905Y-88160905D01*
X45444931Y-88223217D01*
X45439866Y-88294032D01*
X45410905Y-88339095D01*
X45286905Y-88463095D01*
X45224593Y-88497121D01*
X45197810Y-88500000D01*
X44052190Y-88500000D01*
X43984069Y-88479998D01*
X43963095Y-88463095D01*
X43839095Y-88339095D01*
X43805069Y-88276783D01*
X43810134Y-88205968D01*
X43839095Y-88160905D01*
X43963095Y-88036905D01*
X44025407Y-88002879D01*
X44052190Y-88000000D01*
X45197810Y-88000000D01*
X45265931Y-88020002D01*
G37*
G36*
X43544032Y-88560134D02*
G01*
X43589095Y-88589095D01*
X43713095Y-88713095D01*
X43747121Y-88775407D01*
X43750000Y-88802190D01*
X43750000Y-89947810D01*
X43729998Y-90015931D01*
X43713095Y-90036905D01*
X43589095Y-90160905D01*
X43526783Y-90194931D01*
X43455968Y-90189866D01*
X43410905Y-90160905D01*
X43286905Y-90036905D01*
X43252879Y-89974593D01*
X43250000Y-89947810D01*
X43250000Y-88802190D01*
X43270002Y-88734069D01*
X43286905Y-88713095D01*
X43410905Y-88589095D01*
X43473217Y-88555069D01*
X43544032Y-88560134D01*
G37*
G36*
X45794032Y-88559116D02*
G01*
X45839095Y-88588077D01*
X45963095Y-88712077D01*
X45997121Y-88774389D01*
X46000000Y-88801172D01*
X46000000Y-89946792D01*
X45979998Y-90014913D01*
X45963095Y-90035887D01*
X45839095Y-90159887D01*
X45776783Y-90193913D01*
X45705968Y-90188848D01*
X45660905Y-90159887D01*
X45536905Y-90035887D01*
X45502879Y-89973575D01*
X45500000Y-89946792D01*
X45500000Y-88801172D01*
X45520002Y-88733051D01*
X45536905Y-88712077D01*
X45660905Y-88588077D01*
X45723217Y-88554051D01*
X45794032Y-88559116D01*
G37*
G36*
X45794032Y-86310134D02*
G01*
X45839095Y-86339095D01*
X45963095Y-86463095D01*
X45997121Y-86525407D01*
X46000000Y-86552190D01*
X46000000Y-87697810D01*
X45979998Y-87765931D01*
X45963095Y-87786905D01*
X45839095Y-87910905D01*
X45776783Y-87944931D01*
X45705968Y-87939866D01*
X45660905Y-87910905D01*
X45536905Y-87786905D01*
X45502879Y-87724593D01*
X45500000Y-87697810D01*
X45500000Y-86552190D01*
X45520002Y-86484069D01*
X45536905Y-86463095D01*
X45660905Y-86339095D01*
X45723217Y-86305069D01*
X45794032Y-86310134D01*
G37*
G36*
X45265931Y-90270002D02*
G01*
X45286905Y-90286905D01*
X45410905Y-90410905D01*
X45444931Y-90473217D01*
X45439866Y-90544032D01*
X45410905Y-90589095D01*
X45286905Y-90713095D01*
X45224593Y-90747121D01*
X45197810Y-90750000D01*
X44052190Y-90750000D01*
X43984069Y-90729998D01*
X43963095Y-90713095D01*
X43839095Y-90589095D01*
X43805069Y-90526783D01*
X43810134Y-90455968D01*
X43839095Y-90410905D01*
X43963095Y-90286905D01*
X44025407Y-90252879D01*
X44052190Y-90250000D01*
X45197810Y-90250000D01*
X45265931Y-90270002D01*
G37*
G36*
X45292516Y-85770002D02*
G01*
X45313490Y-85786905D01*
X45437490Y-85910905D01*
X45471516Y-85973217D01*
X45466451Y-86044032D01*
X45437490Y-86089095D01*
X45313490Y-86213095D01*
X45251178Y-86247121D01*
X45224395Y-86250000D01*
X44078775Y-86250000D01*
X44010654Y-86229998D01*
X43989680Y-86213095D01*
X43865680Y-86089095D01*
X43831654Y-86026783D01*
X43836719Y-85955968D01*
X43865680Y-85910905D01*
X43989680Y-85786905D01*
X44051992Y-85752879D01*
X44078775Y-85750000D01*
X45224395Y-85750000D01*
X45292516Y-85770002D01*
G37*
G36*
X47044032Y-88560134D02*
G01*
X47089095Y-88589095D01*
X47213095Y-88713095D01*
X47247121Y-88775407D01*
X47250000Y-88802190D01*
X47250000Y-89947810D01*
X47229998Y-90015931D01*
X47213095Y-90036905D01*
X47089095Y-90160905D01*
X47026783Y-90194931D01*
X46955968Y-90189866D01*
X46910905Y-90160905D01*
X46786905Y-90036905D01*
X46752879Y-89974593D01*
X46750000Y-89947810D01*
X46750000Y-88802190D01*
X46770002Y-88734069D01*
X46786905Y-88713095D01*
X46910905Y-88589095D01*
X46973217Y-88555069D01*
X47044032Y-88560134D01*
G37*
G36*
X49294032Y-88559116D02*
G01*
X49339095Y-88588077D01*
X49463095Y-88712077D01*
X49497121Y-88774389D01*
X49500000Y-88801172D01*
X49500000Y-89946792D01*
X49479998Y-90014913D01*
X49463095Y-90035887D01*
X49339095Y-90159887D01*
X49276783Y-90193913D01*
X49205968Y-90188848D01*
X49160905Y-90159887D01*
X49036905Y-90035887D01*
X49002879Y-89973575D01*
X49000000Y-89946792D01*
X49000000Y-88801172D01*
X49020002Y-88733051D01*
X49036905Y-88712077D01*
X49160905Y-88588077D01*
X49223217Y-88554051D01*
X49294032Y-88559116D01*
G37*
G36*
X49294032Y-86310134D02*
G01*
X49339095Y-86339095D01*
X49463095Y-86463095D01*
X49497121Y-86525407D01*
X49500000Y-86552190D01*
X49500000Y-87697810D01*
X49479998Y-87765931D01*
X49463095Y-87786905D01*
X49339095Y-87910905D01*
X49276783Y-87944931D01*
X49205968Y-87939866D01*
X49160905Y-87910905D01*
X49036905Y-87786905D01*
X49002879Y-87724593D01*
X49000000Y-87697810D01*
X49000000Y-86552190D01*
X49020002Y-86484069D01*
X49036905Y-86463095D01*
X49160905Y-86339095D01*
X49223217Y-86305069D01*
X49294032Y-86310134D01*
G37*
G36*
X48765931Y-90270002D02*
G01*
X48786905Y-90286905D01*
X48910905Y-90410905D01*
X48944931Y-90473217D01*
X48939866Y-90544032D01*
X48910905Y-90589095D01*
X48786905Y-90713095D01*
X48724593Y-90747121D01*
X48697810Y-90750000D01*
X47552190Y-90750000D01*
X47484069Y-90729998D01*
X47463095Y-90713095D01*
X47339095Y-90589095D01*
X47305069Y-90526783D01*
X47310134Y-90455968D01*
X47339095Y-90410905D01*
X47463095Y-90286905D01*
X47525407Y-90252879D01*
X47552190Y-90250000D01*
X48697810Y-90250000D01*
X48765931Y-90270002D01*
G37*
G36*
X48765931Y-88020002D02*
G01*
X48786905Y-88036905D01*
X48910905Y-88160905D01*
X48944931Y-88223217D01*
X48939866Y-88294032D01*
X48910905Y-88339095D01*
X48786905Y-88463095D01*
X48724593Y-88497121D01*
X48697810Y-88500000D01*
X47552190Y-88500000D01*
X47484069Y-88479998D01*
X47463095Y-88463095D01*
X47339095Y-88339095D01*
X47305069Y-88276783D01*
X47310134Y-88205968D01*
X47339095Y-88160905D01*
X47463095Y-88036905D01*
X47525407Y-88002879D01*
X47552190Y-88000000D01*
X48697810Y-88000000D01*
X48765931Y-88020002D01*
G37*
G36*
X48792516Y-85770002D02*
G01*
X48813490Y-85786905D01*
X48937490Y-85910905D01*
X48971516Y-85973217D01*
X48966451Y-86044032D01*
X48937490Y-86089095D01*
X48813490Y-86213095D01*
X48751178Y-86247121D01*
X48724395Y-86250000D01*
X47578775Y-86250000D01*
X47510654Y-86229998D01*
X47489680Y-86213095D01*
X47365680Y-86089095D01*
X47331654Y-86026783D01*
X47336719Y-85955968D01*
X47365680Y-85910905D01*
X47489680Y-85786905D01*
X47551992Y-85752879D01*
X47578775Y-85750000D01*
X48724395Y-85750000D01*
X48792516Y-85770002D01*
G37*
G36*
X47044032Y-86310134D02*
G01*
X47089095Y-86339095D01*
X47213095Y-86463095D01*
X47247121Y-86525407D01*
X47250000Y-86552190D01*
X47250000Y-87697810D01*
X47229998Y-87765931D01*
X47213095Y-87786905D01*
X47089095Y-87910905D01*
X47026783Y-87944931D01*
X46955968Y-87939866D01*
X46910905Y-87910905D01*
X46786905Y-87786905D01*
X46752879Y-87724593D01*
X46750000Y-87697810D01*
X46750000Y-86552190D01*
X46770002Y-86484069D01*
X46786905Y-86463095D01*
X46910905Y-86339095D01*
X46973217Y-86305069D01*
X47044032Y-86310134D01*
G37*
G36*
X50544032Y-88560134D02*
G01*
X50589095Y-88589095D01*
X50713095Y-88713095D01*
X50747121Y-88775407D01*
X50750000Y-88802190D01*
X50750000Y-89947810D01*
X50729998Y-90015931D01*
X50713095Y-90036905D01*
X50589095Y-90160905D01*
X50526783Y-90194931D01*
X50455968Y-90189866D01*
X50410905Y-90160905D01*
X50286905Y-90036905D01*
X50252879Y-89974593D01*
X50250000Y-89947810D01*
X50250000Y-88802190D01*
X50270002Y-88734069D01*
X50286905Y-88713095D01*
X50410905Y-88589095D01*
X50473217Y-88555069D01*
X50544032Y-88560134D01*
G37*
G36*
X52794032Y-88559116D02*
G01*
X52839095Y-88588077D01*
X52963095Y-88712077D01*
X52997121Y-88774389D01*
X53000000Y-88801172D01*
X53000000Y-89946792D01*
X52979998Y-90014913D01*
X52963095Y-90035887D01*
X52839095Y-90159887D01*
X52776783Y-90193913D01*
X52705968Y-90188848D01*
X52660905Y-90159887D01*
X52536905Y-90035887D01*
X52502879Y-89973575D01*
X52500000Y-89946792D01*
X52500000Y-88801172D01*
X52520002Y-88733051D01*
X52536905Y-88712077D01*
X52660905Y-88588077D01*
X52723217Y-88554051D01*
X52794032Y-88559116D01*
G37*
G36*
X52794032Y-86310134D02*
G01*
X52839095Y-86339095D01*
X52963095Y-86463095D01*
X52997121Y-86525407D01*
X53000000Y-86552190D01*
X53000000Y-87697810D01*
X52979998Y-87765931D01*
X52963095Y-87786905D01*
X52839095Y-87910905D01*
X52776783Y-87944931D01*
X52705968Y-87939866D01*
X52660905Y-87910905D01*
X52536905Y-87786905D01*
X52502879Y-87724593D01*
X52500000Y-87697810D01*
X52500000Y-86552190D01*
X52520002Y-86484069D01*
X52536905Y-86463095D01*
X52660905Y-86339095D01*
X52723217Y-86305069D01*
X52794032Y-86310134D01*
G37*
G36*
X52265931Y-90270002D02*
G01*
X52286905Y-90286905D01*
X52410905Y-90410905D01*
X52444931Y-90473217D01*
X52439866Y-90544032D01*
X52410905Y-90589095D01*
X52286905Y-90713095D01*
X52224593Y-90747121D01*
X52197810Y-90750000D01*
X51052190Y-90750000D01*
X50984069Y-90729998D01*
X50963095Y-90713095D01*
X50839095Y-90589095D01*
X50805069Y-90526783D01*
X50810134Y-90455968D01*
X50839095Y-90410905D01*
X50963095Y-90286905D01*
X51025407Y-90252879D01*
X51052190Y-90250000D01*
X52197810Y-90250000D01*
X52265931Y-90270002D01*
G37*
G36*
X52265931Y-88020002D02*
G01*
X52286905Y-88036905D01*
X52410905Y-88160905D01*
X52444931Y-88223217D01*
X52439866Y-88294032D01*
X52410905Y-88339095D01*
X52286905Y-88463095D01*
X52224593Y-88497121D01*
X52197810Y-88500000D01*
X51052190Y-88500000D01*
X50984069Y-88479998D01*
X50963095Y-88463095D01*
X50839095Y-88339095D01*
X50805069Y-88276783D01*
X50810134Y-88205968D01*
X50839095Y-88160905D01*
X50963095Y-88036905D01*
X51025407Y-88002879D01*
X51052190Y-88000000D01*
X52197810Y-88000000D01*
X52265931Y-88020002D01*
G37*
G36*
X52292516Y-85770002D02*
G01*
X52313490Y-85786905D01*
X52437490Y-85910905D01*
X52471516Y-85973217D01*
X52466451Y-86044032D01*
X52437490Y-86089095D01*
X52313490Y-86213095D01*
X52251178Y-86247121D01*
X52224395Y-86250000D01*
X51078775Y-86250000D01*
X51010654Y-86229998D01*
X50989680Y-86213095D01*
X50865680Y-86089095D01*
X50831654Y-86026783D01*
X50836719Y-85955968D01*
X50865680Y-85910905D01*
X50989680Y-85786905D01*
X51051992Y-85752879D01*
X51078775Y-85750000D01*
X52224395Y-85750000D01*
X52292516Y-85770002D01*
G37*
G36*
X50544032Y-86310134D02*
G01*
X50589095Y-86339095D01*
X50713095Y-86463095D01*
X50747121Y-86525407D01*
X50750000Y-86552190D01*
X50750000Y-87697810D01*
X50729998Y-87765931D01*
X50713095Y-87786905D01*
X50589095Y-87910905D01*
X50526783Y-87944931D01*
X50455968Y-87939866D01*
X50410905Y-87910905D01*
X50286905Y-87786905D01*
X50252879Y-87724593D01*
X50250000Y-87697810D01*
X50250000Y-86552190D01*
X50270002Y-86484069D01*
X50286905Y-86463095D01*
X50410905Y-86339095D01*
X50473217Y-86305069D01*
X50544032Y-86310134D01*
G37*
G36*
X55265931Y-88020002D02*
G01*
X55286905Y-88036905D01*
X55410905Y-88160905D01*
X55444931Y-88223217D01*
X55439866Y-88294032D01*
X55410905Y-88339095D01*
X55286905Y-88463095D01*
X55224593Y-88497121D01*
X55197810Y-88500000D01*
X54052190Y-88500000D01*
X53984069Y-88479998D01*
X53963095Y-88463095D01*
X53839095Y-88339095D01*
X53805069Y-88276783D01*
X53810134Y-88205968D01*
X53839095Y-88160905D01*
X53963095Y-88036905D01*
X54025407Y-88002879D01*
X54052190Y-88000000D01*
X55197810Y-88000000D01*
X55265931Y-88020002D01*
G37*
G36*
X43544032Y-86310134D02*
G01*
X43589095Y-86339095D01*
X43713095Y-86463095D01*
X43747121Y-86525407D01*
X43750000Y-86552190D01*
X43750000Y-87697810D01*
X43729998Y-87765931D01*
X43713095Y-87786905D01*
X43589095Y-87910905D01*
X43526783Y-87944931D01*
X43455968Y-87939866D01*
X43410905Y-87910905D01*
X43286905Y-87786905D01*
X43252879Y-87724593D01*
X43250000Y-87697810D01*
X43250000Y-86552190D01*
X43270002Y-86484069D01*
X43286905Y-86463095D01*
X43410905Y-86339095D01*
X43473217Y-86305069D01*
X43544032Y-86310134D01*
G37*
M02*
