%TF.GenerationSoftware,KiCad,Pcbnew,6.0.6*%
%TF.CreationDate,2022-08-30T17:07:56+02:00*%
%TF.ProjectId,rf_biscuit,72665f62-6973-4637-9569-742e6b696361,rev?*%
%TF.SameCoordinates,Original*%
%TF.FileFunction,Legend,Top*%
%TF.FilePolarity,Positive*%
%FSLAX46Y46*%
G04 Gerber Fmt 4.6, Leading zero omitted, Abs format (unit mm)*
G04 Created by KiCad (PCBNEW 6.0.6) date 2022-08-30 17:07:56*
%MOMM*%
%LPD*%
G01*
G04 APERTURE LIST*
%ADD10C,0.120000*%
G04 APERTURE END LIST*
D10*
%TO.C,P2*%
X64000000Y-91260000D02*
X64000000Y-90150000D01*
X59240000Y-92350000D02*
X59740000Y-92100000D01*
X64000000Y-94050000D02*
X64000000Y-92940000D01*
X59240000Y-91850000D02*
X59240000Y-92350000D01*
X59740000Y-92100000D02*
X59240000Y-91850000D01*
X60290000Y-91260000D02*
X60290000Y-90150000D01*
X60290000Y-94050000D02*
X60290000Y-92940000D01*
%TO.C,R1*%
X38410000Y-90461252D02*
X38410000Y-89938748D01*
X36990000Y-90461252D02*
X36990000Y-89938748D01*
%TO.C,R2*%
X38410000Y-94261252D02*
X38410000Y-93738748D01*
X36990000Y-94261252D02*
X36990000Y-93738748D01*
%TO.C,R3*%
X41161252Y-90990000D02*
X40638748Y-90990000D01*
X41161252Y-93210000D02*
X40638748Y-93210000D01*
%TO.C,R4*%
X42790000Y-89061252D02*
X42790000Y-88538748D01*
X44210000Y-89061252D02*
X44210000Y-88538748D01*
%TO.C,R5*%
X44210000Y-95661252D02*
X44210000Y-95138748D01*
X42790000Y-95661252D02*
X42790000Y-95138748D01*
%TO.C,R6*%
X46261252Y-93210000D02*
X45738748Y-93210000D01*
X46261252Y-90990000D02*
X45738748Y-90990000D01*
%TO.C,R7*%
X47790000Y-89061252D02*
X47790000Y-88538748D01*
X49210000Y-89061252D02*
X49210000Y-88538748D01*
%TO.C,R8*%
X49210000Y-95661252D02*
X49210000Y-95138748D01*
X47790000Y-95661252D02*
X47790000Y-95138748D01*
%TO.C,R9*%
X51361252Y-90990000D02*
X50838748Y-90990000D01*
X51361252Y-93210000D02*
X50838748Y-93210000D01*
%TO.C,P1*%
X32760000Y-92250000D02*
X32760000Y-91750000D01*
X28000000Y-92840000D02*
X28000000Y-93950000D01*
X32260000Y-92000000D02*
X32760000Y-92250000D01*
X28000000Y-90050000D02*
X28000000Y-91160000D01*
X31710000Y-90050000D02*
X31710000Y-91160000D01*
X31710000Y-92840000D02*
X31710000Y-93950000D01*
X32760000Y-91750000D02*
X32260000Y-92000000D01*
%TO.C,R10*%
X55010000Y-93738748D02*
X55010000Y-94261252D01*
X53590000Y-93738748D02*
X53590000Y-94261252D01*
%TO.C,R11*%
X55010000Y-89913748D02*
X55010000Y-90436252D01*
X53590000Y-89913748D02*
X53590000Y-90436252D01*
%TO.C,JP1*%
X32900000Y-93000000D02*
X32900000Y-91000000D01*
X35700000Y-91000000D02*
X35700000Y-93000000D01*
X35700000Y-93000000D02*
X32900000Y-93000000D01*
X32900000Y-91000000D02*
X35700000Y-91000000D01*
%TO.C,JP2*%
X56200000Y-91100000D02*
X59000000Y-91100000D01*
X59000000Y-93100000D02*
X56200000Y-93100000D01*
X59000000Y-91100000D02*
X59000000Y-93100000D01*
X56200000Y-93100000D02*
X56200000Y-91100000D01*
%TO.C,J1*%
X38850000Y-81450000D02*
X40650000Y-81450000D01*
X43850000Y-81450000D02*
X48150000Y-81450000D01*
X56650000Y-97450000D02*
X56650000Y-99250000D01*
X38850000Y-102750000D02*
X40650000Y-102750000D01*
X56650000Y-89950000D02*
X56650000Y-94250000D01*
X51350000Y-81450000D02*
X53150000Y-81450000D01*
X35350000Y-84950000D02*
X35350000Y-86750000D01*
X35350000Y-89950000D02*
X35350000Y-94250000D01*
X43850000Y-102750000D02*
X48150000Y-102750000D01*
X56650000Y-84950000D02*
X56650000Y-86750000D01*
X35350000Y-97450000D02*
X35350000Y-99250000D01*
X51350000Y-102750000D02*
X53150000Y-102750000D01*
%TD*%
M02*
