%TF.GenerationSoftware,KiCad,Pcbnew,6.0.6*%
%TF.CreationDate,2022-08-30T17:07:56+02:00*%
%TF.ProjectId,rf_biscuit,72665f62-6973-4637-9569-742e6b696361,rev?*%
%TF.SameCoordinates,Original*%
%TF.FileFunction,Copper,L1,Top*%
%TF.FilePolarity,Positive*%
%FSLAX46Y46*%
G04 Gerber Fmt 4.6, Leading zero omitted, Abs format (unit mm)*
G04 Created by KiCad (PCBNEW 6.0.6) date 2022-08-30 17:07:56*
%MOMM*%
%LPD*%
G01*
G04 APERTURE LIST*
G04 Aperture macros list*
%AMRoundRect*
0 Rectangle with rounded corners*
0 $1 Rounding radius*
0 $2 $3 $4 $5 $6 $7 $8 $9 X,Y pos of 4 corners*
0 Add a 4 corners polygon primitive as box body*
4,1,4,$2,$3,$4,$5,$6,$7,$8,$9,$2,$3,0*
0 Add four circle primitives for the rounded corners*
1,1,$1+$1,$2,$3*
1,1,$1+$1,$4,$5*
1,1,$1+$1,$6,$7*
1,1,$1+$1,$8,$9*
0 Add four rect primitives between the rounded corners*
20,1,$1+$1,$2,$3,$4,$5,0*
20,1,$1+$1,$4,$5,$6,$7,0*
20,1,$1+$1,$6,$7,$8,$9,0*
20,1,$1+$1,$8,$9,$2,$3,0*%
G04 Aperture macros list end*
%TA.AperFunction,SMDPad,CuDef*%
%ADD10R,3.600000X1.270000*%
%TD*%
%TA.AperFunction,SMDPad,CuDef*%
%ADD11R,4.200000X1.350000*%
%TD*%
%TA.AperFunction,SMDPad,CuDef*%
%ADD12RoundRect,0.250000X0.450000X-0.325000X0.450000X0.325000X-0.450000X0.325000X-0.450000X-0.325000X0*%
%TD*%
%TA.AperFunction,SMDPad,CuDef*%
%ADD13RoundRect,0.250001X0.462499X0.849999X-0.462499X0.849999X-0.462499X-0.849999X0.462499X-0.849999X0*%
%TD*%
%TA.AperFunction,SMDPad,CuDef*%
%ADD14RoundRect,0.218750X0.218750X0.256250X-0.218750X0.256250X-0.218750X-0.256250X0.218750X-0.256250X0*%
%TD*%
%TA.AperFunction,SMDPad,CuDef*%
%ADD15RoundRect,0.250000X-0.450000X0.325000X-0.450000X-0.325000X0.450000X-0.325000X0.450000X0.325000X0*%
%TD*%
%TA.AperFunction,SMDPad,CuDef*%
%ADD16R,1.000000X1.500000*%
%TD*%
%TA.AperFunction,SMDPad,CuDef*%
%ADD17R,1.000000X2.600000*%
%TD*%
%TA.AperFunction,SMDPad,CuDef*%
%ADD18R,1.000000X1.000000*%
%TD*%
%TA.AperFunction,SMDPad,CuDef*%
%ADD19R,1.000000X2.300000*%
%TD*%
%TA.AperFunction,SMDPad,CuDef*%
%ADD20R,2.600000X1.000000*%
%TD*%
%TA.AperFunction,SMDPad,CuDef*%
%ADD21R,2.300000X1.000000*%
%TD*%
%TA.AperFunction,ViaPad*%
%ADD22C,0.600000*%
%TD*%
%TA.AperFunction,Conductor*%
%ADD23C,0.250000*%
%TD*%
G04 APERTURE END LIST*
%TO.C,JP1*%
G36*
X34550000Y-92600000D02*
G01*
X34050000Y-92600000D01*
X34050000Y-92200000D01*
X34550000Y-92200000D01*
X34550000Y-92600000D01*
G37*
G36*
X34550000Y-91800000D02*
G01*
X34050000Y-91800000D01*
X34050000Y-91400000D01*
X34550000Y-91400000D01*
X34550000Y-91800000D01*
G37*
%TO.C,JP2*%
G36*
X57850000Y-92700000D02*
G01*
X57350000Y-92700000D01*
X57350000Y-92300000D01*
X57850000Y-92300000D01*
X57850000Y-92700000D01*
G37*
G36*
X57850000Y-91900000D02*
G01*
X57350000Y-91900000D01*
X57350000Y-91500000D01*
X57850000Y-91500000D01*
X57850000Y-91900000D01*
G37*
%TD*%
D10*
%TO.P,P2,1,In*%
%TO.N,Net-(JP2-Pad2)*%
X62200000Y-92100000D03*
D11*
%TO.P,P2,2,Ext*%
%TO.N,GND*%
X62000000Y-94925000D03*
X62000000Y-89275000D03*
%TD*%
D12*
%TO.P,R1,1*%
%TO.N,Net-(JP1-Pad2)*%
X37700000Y-91225000D03*
%TO.P,R1,2*%
%TO.N,GND*%
X37700000Y-89175000D03*
%TD*%
%TO.P,R2,1*%
%TO.N,GND*%
X37700000Y-95025000D03*
%TO.P,R2,2*%
%TO.N,Net-(JP1-Pad2)*%
X37700000Y-92975000D03*
%TD*%
D13*
%TO.P,R3,1*%
%TO.N,Net-(R3-Pad1)*%
X42062500Y-92100000D03*
D14*
X41687500Y-92075000D03*
%TO.P,R3,2*%
%TO.N,Net-(JP1-Pad2)*%
X40112500Y-92075000D03*
D13*
X39737500Y-92100000D03*
%TD*%
D12*
%TO.P,R4,1*%
%TO.N,Net-(R3-Pad1)*%
X43500000Y-89825000D03*
%TO.P,R4,2*%
%TO.N,GND*%
X43500000Y-87775000D03*
%TD*%
%TO.P,R5,1*%
%TO.N,GND*%
X43500000Y-96425000D03*
%TO.P,R5,2*%
%TO.N,Net-(R3-Pad1)*%
X43500000Y-94375000D03*
%TD*%
D14*
%TO.P,R6,1*%
%TO.N,Net-(R6-Pad1)*%
X46787500Y-92075000D03*
D13*
X47162500Y-92100000D03*
%TO.P,R6,2*%
%TO.N,Net-(R3-Pad1)*%
X44837500Y-92100000D03*
D14*
X45212500Y-92075000D03*
%TD*%
D12*
%TO.P,R7,1*%
%TO.N,Net-(R6-Pad1)*%
X48500000Y-89825000D03*
%TO.P,R7,2*%
%TO.N,GND*%
X48500000Y-87775000D03*
%TD*%
%TO.P,R8,1*%
%TO.N,GND*%
X48500000Y-96425000D03*
%TO.P,R8,2*%
%TO.N,Net-(R6-Pad1)*%
X48500000Y-94375000D03*
%TD*%
D13*
%TO.P,R9,1*%
%TO.N,Net-(JP2-Pad1)*%
X52262500Y-92100000D03*
D14*
X51887500Y-92075000D03*
%TO.P,R9,2*%
%TO.N,Net-(R6-Pad1)*%
X50312500Y-92075000D03*
D13*
X49937500Y-92100000D03*
%TD*%
D10*
%TO.P,P1,1,In*%
%TO.N,Net-(JP1-Pad1)*%
X29800000Y-92000000D03*
D11*
%TO.P,P1,2,Ext*%
%TO.N,GND*%
X30000000Y-89175000D03*
X30000000Y-94825000D03*
%TD*%
D15*
%TO.P,R10,1*%
%TO.N,Net-(JP2-Pad1)*%
X54300000Y-92975000D03*
%TO.P,R10,2*%
%TO.N,GND*%
X54300000Y-95025000D03*
%TD*%
%TO.P,R11,1*%
%TO.N,GND*%
X54300000Y-89150000D03*
%TO.P,R11,2*%
%TO.N,Net-(JP2-Pad1)*%
X54300000Y-91200000D03*
%TD*%
D16*
%TO.P,JP1,1,A*%
%TO.N,Net-(JP1-Pad1)*%
X33650000Y-92000000D03*
%TO.P,JP1,2,B*%
%TO.N,Net-(JP1-Pad2)*%
X34950000Y-92000000D03*
%TD*%
%TO.P,JP2,1,A*%
%TO.N,Net-(JP2-Pad1)*%
X56950000Y-92100000D03*
%TO.P,JP2,2,B*%
%TO.N,Net-(JP2-Pad2)*%
X58250000Y-92100000D03*
%TD*%
D17*
%TO.P,J1,1,Shield*%
%TO.N,GND*%
X35750000Y-95850000D03*
D18*
X56250000Y-102350000D03*
X35750000Y-81850000D03*
D19*
X35750000Y-100700000D03*
X56250000Y-100700000D03*
D20*
X42250000Y-102350000D03*
D18*
X35750000Y-102350000D03*
D21*
X37400000Y-81850000D03*
D19*
X35750000Y-83500000D03*
D21*
X54600000Y-81850000D03*
D19*
X56250000Y-83500000D03*
D20*
X42250000Y-81850000D03*
D17*
X56250000Y-95850000D03*
X56250000Y-88350000D03*
D20*
X49750000Y-102350000D03*
D21*
X54600000Y-102350000D03*
D18*
X56250000Y-81850000D03*
D17*
X35750000Y-88350000D03*
D20*
X49750000Y-81850000D03*
D21*
X37400000Y-102350000D03*
%TD*%
D22*
%TO.N,GND*%
X41200000Y-96500000D03*
X39700000Y-88800000D03*
X39700000Y-95300000D03*
X46000000Y-96500000D03*
X50700000Y-96500000D03*
X46000000Y-87700000D03*
X41200000Y-87700000D03*
X54300000Y-87400000D03*
X52400000Y-89100000D03*
X54300000Y-96600000D03*
X52400000Y-95400000D03*
X37700000Y-96500000D03*
X50700000Y-87700000D03*
X37700000Y-87500000D03*
%TD*%
D23*
%TO.N,GND*%
X34750000Y-80750000D02*
X35750000Y-81750000D01*
X56250000Y-88750000D02*
X56250000Y-88250000D01*
X56250000Y-81750000D02*
X56750000Y-81750000D01*
X56750000Y-102250000D02*
X57750000Y-103250000D01*
X56250000Y-102250000D02*
X56750000Y-102250000D01*
X34250000Y-80750000D02*
X34750000Y-80750000D01*
X56250000Y-100600000D02*
X56250000Y-102250000D01*
X35750000Y-102250000D02*
X35750000Y-100600000D01*
X56750000Y-81750000D02*
X57750000Y-80750000D01*
X37400000Y-81750000D02*
X35750000Y-81750000D01*
%TD*%
%TA.AperFunction,Conductor*%
%TO.N,Net-(JP1-Pad2)*%
G36*
X40342121Y-90607502D02*
G01*
X40388614Y-90661158D01*
X40400000Y-90713500D01*
X40400000Y-93461500D01*
X40379998Y-93529621D01*
X40326342Y-93576114D01*
X40274000Y-93587500D01*
X36621384Y-93587500D01*
X36553263Y-93567498D01*
X36506770Y-93513842D01*
X36495387Y-93462410D01*
X36495381Y-93461500D01*
X36494936Y-93400000D01*
X34626000Y-93400000D01*
X34557879Y-93379998D01*
X34511386Y-93326342D01*
X34500000Y-93274000D01*
X34500000Y-90726000D01*
X34520002Y-90657879D01*
X34573658Y-90611386D01*
X34626000Y-90600000D01*
X36500000Y-90600000D01*
X36500000Y-90594681D01*
X36507073Y-90592604D01*
X36542571Y-90587500D01*
X40274000Y-90587500D01*
X40342121Y-90607502D01*
G37*
%TD.AperFunction*%
%TD*%
%TA.AperFunction,Conductor*%
%TO.N,Net-(JP2-Pad1)*%
G36*
X55449755Y-90620002D02*
G01*
X55496248Y-90673658D01*
X55500000Y-90683718D01*
X55500000Y-90700000D01*
X57274000Y-90700000D01*
X57342121Y-90720002D01*
X57388614Y-90773658D01*
X57400000Y-90826000D01*
X57400000Y-93374000D01*
X57379998Y-93442121D01*
X57326342Y-93488614D01*
X57274000Y-93500000D01*
X55500000Y-93500000D01*
X55500000Y-93507794D01*
X55486053Y-93523889D01*
X55471471Y-93550595D01*
X55409159Y-93584620D01*
X55382375Y-93587500D01*
X51826000Y-93587500D01*
X51757879Y-93567498D01*
X51711386Y-93513842D01*
X51700000Y-93461500D01*
X51700000Y-90726000D01*
X51720002Y-90657879D01*
X51773658Y-90611386D01*
X51826000Y-90600000D01*
X55381634Y-90600000D01*
X55449755Y-90620002D01*
G37*
%TD.AperFunction*%
%TD*%
%TA.AperFunction,Conductor*%
%TO.N,Net-(R6-Pad1)*%
G36*
X50642121Y-89320002D02*
G01*
X50688614Y-89373658D01*
X50700000Y-89426000D01*
X50700000Y-94761500D01*
X50679998Y-94829621D01*
X50626342Y-94876114D01*
X50574000Y-94887500D01*
X46626000Y-94887500D01*
X46557879Y-94867498D01*
X46511386Y-94813842D01*
X46500000Y-94761500D01*
X46500000Y-89426000D01*
X46520002Y-89357879D01*
X46573658Y-89311386D01*
X46626000Y-89300000D01*
X50574000Y-89300000D01*
X50642121Y-89320002D01*
G37*
%TD.AperFunction*%
%TD*%
%TA.AperFunction,Conductor*%
%TO.N,Net-(R3-Pad1)*%
G36*
X45542121Y-89320002D02*
G01*
X45588614Y-89373658D01*
X45600000Y-89426000D01*
X45600000Y-94761500D01*
X45579998Y-94829621D01*
X45526342Y-94876114D01*
X45474000Y-94887500D01*
X41526000Y-94887500D01*
X41457879Y-94867498D01*
X41411386Y-94813842D01*
X41400000Y-94761500D01*
X41400000Y-89426000D01*
X41420002Y-89357879D01*
X41473658Y-89311386D01*
X41526000Y-89300000D01*
X45474000Y-89300000D01*
X45542121Y-89320002D01*
G37*
%TD.AperFunction*%
%TD*%
%TA.AperFunction,Conductor*%
%TO.N,Net-(JP1-Pad1)*%
G36*
X34042121Y-91220002D02*
G01*
X34088614Y-91273658D01*
X34100000Y-91326000D01*
X34100000Y-92874000D01*
X34079998Y-92942121D01*
X34026342Y-92988614D01*
X33974000Y-93000000D01*
X33015511Y-93000000D01*
X32984953Y-92996238D01*
X31495440Y-92623860D01*
X31434205Y-92587933D01*
X31402114Y-92524604D01*
X31400000Y-92501622D01*
X31400000Y-91511231D01*
X31420002Y-91443110D01*
X31473658Y-91396617D01*
X31510372Y-91386204D01*
X32992216Y-91200973D01*
X33007844Y-91200000D01*
X33974000Y-91200000D01*
X34042121Y-91220002D01*
G37*
%TD.AperFunction*%
%TD*%
%TA.AperFunction,Conductor*%
%TO.N,GND*%
G36*
X27906837Y-94096450D02*
G01*
X27910108Y-94097149D01*
X27910129Y-94100000D01*
X34700481Y-94100000D01*
X34768602Y-94120002D01*
X34815095Y-94173658D01*
X34825199Y-94243932D01*
X34807244Y-94287236D01*
X34809522Y-94288483D01*
X34796676Y-94311946D01*
X34751522Y-94432394D01*
X34747895Y-94447649D01*
X34742369Y-94498514D01*
X34742000Y-94505328D01*
X34742000Y-95577885D01*
X34746475Y-95593124D01*
X34747865Y-95594329D01*
X34755548Y-95596000D01*
X35878000Y-95596000D01*
X35946121Y-95616002D01*
X35992614Y-95669658D01*
X36004000Y-95722000D01*
X36004000Y-97639884D01*
X36008475Y-97655123D01*
X36009865Y-97656328D01*
X36017548Y-97657999D01*
X36294669Y-97657999D01*
X36301490Y-97657629D01*
X36352352Y-97652105D01*
X36367604Y-97648479D01*
X36488054Y-97603324D01*
X36503649Y-97594786D01*
X36605724Y-97518285D01*
X36618285Y-97505724D01*
X36694786Y-97403649D01*
X36703324Y-97388054D01*
X36748478Y-97267606D01*
X36752105Y-97252351D01*
X36757631Y-97201486D01*
X36758000Y-97194672D01*
X36758000Y-96797095D01*
X42292001Y-96797095D01*
X42292338Y-96803614D01*
X42302257Y-96899206D01*
X42305149Y-96912600D01*
X42356588Y-97066784D01*
X42362761Y-97079962D01*
X42448063Y-97217807D01*
X42457099Y-97229208D01*
X42571829Y-97343739D01*
X42583240Y-97352751D01*
X42721243Y-97437816D01*
X42734424Y-97443963D01*
X42888710Y-97495138D01*
X42902086Y-97498005D01*
X42996438Y-97507672D01*
X43002854Y-97508000D01*
X43227885Y-97508000D01*
X43243124Y-97503525D01*
X43244329Y-97502135D01*
X43246000Y-97494452D01*
X43246000Y-97489884D01*
X43754000Y-97489884D01*
X43758475Y-97505123D01*
X43759865Y-97506328D01*
X43767548Y-97507999D01*
X43997095Y-97507999D01*
X44003614Y-97507662D01*
X44099206Y-97497743D01*
X44112600Y-97494851D01*
X44266784Y-97443412D01*
X44279962Y-97437239D01*
X44417807Y-97351937D01*
X44429208Y-97342901D01*
X44543739Y-97228171D01*
X44552751Y-97216760D01*
X44637816Y-97078757D01*
X44643963Y-97065576D01*
X44695138Y-96911290D01*
X44698005Y-96897914D01*
X44707672Y-96803562D01*
X44708000Y-96797146D01*
X44708000Y-96797095D01*
X47292001Y-96797095D01*
X47292338Y-96803614D01*
X47302257Y-96899206D01*
X47305149Y-96912600D01*
X47356588Y-97066784D01*
X47362761Y-97079962D01*
X47448063Y-97217807D01*
X47457099Y-97229208D01*
X47571829Y-97343739D01*
X47583240Y-97352751D01*
X47721243Y-97437816D01*
X47734424Y-97443963D01*
X47888710Y-97495138D01*
X47902086Y-97498005D01*
X47996438Y-97507672D01*
X48002854Y-97508000D01*
X48227885Y-97508000D01*
X48243124Y-97503525D01*
X48244329Y-97502135D01*
X48246000Y-97494452D01*
X48246000Y-97489884D01*
X48754000Y-97489884D01*
X48758475Y-97505123D01*
X48759865Y-97506328D01*
X48767548Y-97507999D01*
X48997095Y-97507999D01*
X49003614Y-97507662D01*
X49099206Y-97497743D01*
X49112600Y-97494851D01*
X49266784Y-97443412D01*
X49279962Y-97437239D01*
X49417807Y-97351937D01*
X49429208Y-97342901D01*
X49543739Y-97228171D01*
X49552751Y-97216760D01*
X49637816Y-97078757D01*
X49643963Y-97065576D01*
X49695138Y-96911290D01*
X49698005Y-96897914D01*
X49707672Y-96803562D01*
X49708000Y-96797146D01*
X49708000Y-96697115D01*
X49703525Y-96681876D01*
X49702135Y-96680671D01*
X49694452Y-96679000D01*
X48772115Y-96679000D01*
X48756876Y-96683475D01*
X48755671Y-96684865D01*
X48754000Y-96692548D01*
X48754000Y-97489884D01*
X48246000Y-97489884D01*
X48246000Y-96697115D01*
X48241525Y-96681876D01*
X48240135Y-96680671D01*
X48232452Y-96679000D01*
X47310116Y-96679000D01*
X47294877Y-96683475D01*
X47293672Y-96684865D01*
X47292001Y-96692548D01*
X47292001Y-96797095D01*
X44708000Y-96797095D01*
X44708000Y-96697115D01*
X44703525Y-96681876D01*
X44702135Y-96680671D01*
X44694452Y-96679000D01*
X43772115Y-96679000D01*
X43756876Y-96683475D01*
X43755671Y-96684865D01*
X43754000Y-96692548D01*
X43754000Y-97489884D01*
X43246000Y-97489884D01*
X43246000Y-96697115D01*
X43241525Y-96681876D01*
X43240135Y-96680671D01*
X43232452Y-96679000D01*
X42310116Y-96679000D01*
X42294877Y-96683475D01*
X42293672Y-96684865D01*
X42292001Y-96692548D01*
X42292001Y-96797095D01*
X36758000Y-96797095D01*
X36758000Y-96159476D01*
X36778002Y-96091355D01*
X36831658Y-96044862D01*
X36901932Y-96034758D01*
X36927261Y-96042304D01*
X36927475Y-96041658D01*
X37088710Y-96095138D01*
X37102086Y-96098005D01*
X37196438Y-96107672D01*
X37202854Y-96108000D01*
X37427885Y-96108000D01*
X37443124Y-96103525D01*
X37444329Y-96102135D01*
X37446000Y-96094452D01*
X37446000Y-96089884D01*
X37954000Y-96089884D01*
X37958475Y-96105123D01*
X37959865Y-96106328D01*
X37967548Y-96107999D01*
X38197095Y-96107999D01*
X38203614Y-96107662D01*
X38299206Y-96097743D01*
X38312600Y-96094851D01*
X38466784Y-96043412D01*
X38479962Y-96037239D01*
X38617807Y-95951937D01*
X38629208Y-95942901D01*
X38743739Y-95828171D01*
X38752751Y-95816760D01*
X38837816Y-95678757D01*
X38843963Y-95665576D01*
X38895138Y-95511290D01*
X38898005Y-95497914D01*
X38907672Y-95403562D01*
X38908000Y-95397146D01*
X38908000Y-95297115D01*
X38903525Y-95281876D01*
X38902135Y-95280671D01*
X38894452Y-95279000D01*
X37972115Y-95279000D01*
X37956876Y-95283475D01*
X37955671Y-95284865D01*
X37954000Y-95292548D01*
X37954000Y-96089884D01*
X37446000Y-96089884D01*
X37446000Y-94910144D01*
X37466002Y-94842023D01*
X37519658Y-94795530D01*
X37572000Y-94784144D01*
X40274000Y-94784144D01*
X40342121Y-94804146D01*
X40388614Y-94857802D01*
X40400000Y-94910144D01*
X40400000Y-96100000D01*
X42182149Y-96100000D01*
X42250270Y-96120002D01*
X42278387Y-96152451D01*
X42297865Y-96169329D01*
X42305548Y-96171000D01*
X44689884Y-96171000D01*
X44705124Y-96166525D01*
X44725086Y-96143488D01*
X44784812Y-96105104D01*
X44820310Y-96100000D01*
X47182149Y-96100000D01*
X47250270Y-96120002D01*
X47278387Y-96152451D01*
X47297865Y-96169329D01*
X47305548Y-96171000D01*
X49689884Y-96171000D01*
X49705124Y-96166525D01*
X49725086Y-96143488D01*
X49784812Y-96105104D01*
X49820310Y-96100000D01*
X51700000Y-96100000D01*
X51700000Y-95397095D01*
X53092001Y-95397095D01*
X53092338Y-95403614D01*
X53102257Y-95499206D01*
X53105149Y-95512600D01*
X53156588Y-95666784D01*
X53162761Y-95679962D01*
X53248063Y-95817807D01*
X53257099Y-95829208D01*
X53371829Y-95943739D01*
X53383240Y-95952751D01*
X53521243Y-96037816D01*
X53534424Y-96043963D01*
X53688710Y-96095138D01*
X53702086Y-96098005D01*
X53796438Y-96107672D01*
X53802854Y-96108000D01*
X54027885Y-96108000D01*
X54043124Y-96103525D01*
X54044329Y-96102135D01*
X54046000Y-96094452D01*
X54046000Y-95297115D01*
X54041525Y-95281876D01*
X54040135Y-95280671D01*
X54032452Y-95279000D01*
X53110116Y-95279000D01*
X53094877Y-95283475D01*
X53093672Y-95284865D01*
X53092001Y-95292548D01*
X53092001Y-95397095D01*
X51700000Y-95397095D01*
X51700000Y-94926000D01*
X51720002Y-94857879D01*
X51773658Y-94811386D01*
X51826000Y-94800000D01*
X54428000Y-94800000D01*
X54496121Y-94820002D01*
X54542614Y-94873658D01*
X54554000Y-94926000D01*
X54554000Y-96089884D01*
X54558475Y-96105123D01*
X54559865Y-96106328D01*
X54567548Y-96107999D01*
X54797095Y-96107999D01*
X54803614Y-96107662D01*
X54899206Y-96097743D01*
X54912600Y-96094851D01*
X55073732Y-96041094D01*
X55074552Y-96043552D01*
X55132723Y-96034612D01*
X55197587Y-96063477D01*
X55236547Y-96122829D01*
X55242001Y-96159497D01*
X55242001Y-97194669D01*
X55242371Y-97201490D01*
X55247895Y-97252352D01*
X55251521Y-97267604D01*
X55296676Y-97388054D01*
X55305214Y-97403649D01*
X55381715Y-97505724D01*
X55394276Y-97518285D01*
X55496351Y-97594786D01*
X55511946Y-97603324D01*
X55632394Y-97648478D01*
X55647649Y-97652105D01*
X55698514Y-97657631D01*
X55705328Y-97658000D01*
X55977885Y-97658000D01*
X55993124Y-97653525D01*
X55994329Y-97652135D01*
X55996000Y-97644452D01*
X55996000Y-97639884D01*
X56504000Y-97639884D01*
X56508475Y-97655123D01*
X56509865Y-97656328D01*
X56517548Y-97657999D01*
X56794669Y-97657999D01*
X56801490Y-97657629D01*
X56852352Y-97652105D01*
X56867604Y-97648479D01*
X56988054Y-97603324D01*
X57003649Y-97594786D01*
X57105724Y-97518285D01*
X57118285Y-97505724D01*
X57194786Y-97403649D01*
X57203324Y-97388054D01*
X57248478Y-97267606D01*
X57252105Y-97252351D01*
X57257631Y-97201486D01*
X57258000Y-97194672D01*
X57258000Y-96122115D01*
X57253525Y-96106876D01*
X57252135Y-96105671D01*
X57244452Y-96104000D01*
X56522115Y-96104000D01*
X56506876Y-96108475D01*
X56505671Y-96109865D01*
X56504000Y-96117548D01*
X56504000Y-97639884D01*
X55996000Y-97639884D01*
X55996000Y-95722000D01*
X56016002Y-95653879D01*
X56069658Y-95607386D01*
X56122000Y-95596000D01*
X57239884Y-95596000D01*
X57255123Y-95591525D01*
X57256328Y-95590135D01*
X57257999Y-95582452D01*
X57257999Y-94505331D01*
X57257629Y-94498510D01*
X57252105Y-94447648D01*
X57248478Y-94432394D01*
X57225174Y-94370229D01*
X57219991Y-94299422D01*
X57253912Y-94237053D01*
X57316167Y-94202924D01*
X57343156Y-94200000D01*
X64119500Y-94200000D01*
X64187621Y-94220002D01*
X64234114Y-94273658D01*
X64245500Y-94326000D01*
X64245500Y-100462524D01*
X64243079Y-100487103D01*
X64240514Y-100500000D01*
X64242935Y-100512172D01*
X64242935Y-100524580D01*
X64242844Y-100524580D01*
X64243636Y-100535565D01*
X64229016Y-100814540D01*
X64228067Y-100832646D01*
X64226689Y-100845763D01*
X64175611Y-101168255D01*
X64172869Y-101181155D01*
X64126141Y-101355549D01*
X64088362Y-101496541D01*
X64084286Y-101509084D01*
X63967280Y-101813894D01*
X63961916Y-101825943D01*
X63813682Y-102116867D01*
X63807088Y-102128288D01*
X63629258Y-102402124D01*
X63621505Y-102412794D01*
X63416032Y-102666532D01*
X63407207Y-102676333D01*
X63176333Y-102907207D01*
X63166532Y-102916032D01*
X62912794Y-103121505D01*
X62902124Y-103129258D01*
X62628288Y-103307088D01*
X62616867Y-103313682D01*
X62325943Y-103461916D01*
X62313894Y-103467280D01*
X62009084Y-103584286D01*
X61996541Y-103588362D01*
X61681155Y-103672869D01*
X61668255Y-103675611D01*
X61345763Y-103726689D01*
X61332647Y-103728067D01*
X61035565Y-103743636D01*
X61024580Y-103742844D01*
X61024580Y-103742935D01*
X61012172Y-103742935D01*
X61000000Y-103740514D01*
X60987103Y-103743079D01*
X60962524Y-103745500D01*
X31037476Y-103745500D01*
X31012897Y-103743079D01*
X31000000Y-103740514D01*
X30987828Y-103742935D01*
X30975420Y-103742935D01*
X30975420Y-103742844D01*
X30964435Y-103743636D01*
X30667353Y-103728067D01*
X30654237Y-103726689D01*
X30331745Y-103675611D01*
X30318845Y-103672869D01*
X30003459Y-103588362D01*
X29990916Y-103584286D01*
X29686106Y-103467280D01*
X29674057Y-103461916D01*
X29383133Y-103313682D01*
X29371712Y-103307088D01*
X29097876Y-103129258D01*
X29087206Y-103121505D01*
X28833468Y-102916032D01*
X28823667Y-102907207D01*
X28811129Y-102894669D01*
X34742001Y-102894669D01*
X34742371Y-102901490D01*
X34747895Y-102952352D01*
X34751521Y-102967604D01*
X34796676Y-103088054D01*
X34805214Y-103103649D01*
X34881715Y-103205724D01*
X34894276Y-103218285D01*
X34996351Y-103294786D01*
X35011946Y-103303324D01*
X35132394Y-103348478D01*
X35147649Y-103352105D01*
X35198514Y-103357631D01*
X35205328Y-103358000D01*
X35477885Y-103358000D01*
X35493124Y-103353525D01*
X35494329Y-103352135D01*
X35496000Y-103344452D01*
X35496000Y-103339884D01*
X36004000Y-103339884D01*
X36008475Y-103355123D01*
X36009865Y-103356328D01*
X36017548Y-103357999D01*
X36201895Y-103357999D01*
X36201927Y-103358000D01*
X37127885Y-103358000D01*
X37143124Y-103353525D01*
X37144329Y-103352135D01*
X37146000Y-103344452D01*
X37146000Y-103339884D01*
X37654000Y-103339884D01*
X37658475Y-103355123D01*
X37659865Y-103356328D01*
X37667548Y-103357999D01*
X38594669Y-103357999D01*
X38601490Y-103357629D01*
X38652352Y-103352105D01*
X38667604Y-103348479D01*
X38788054Y-103303324D01*
X38803649Y-103294786D01*
X38905724Y-103218285D01*
X38918285Y-103205724D01*
X38994786Y-103103649D01*
X39003324Y-103088054D01*
X39048478Y-102967606D01*
X39052105Y-102952351D01*
X39057631Y-102901486D01*
X39058000Y-102894672D01*
X39058000Y-102894669D01*
X40442001Y-102894669D01*
X40442371Y-102901490D01*
X40447895Y-102952352D01*
X40451521Y-102967604D01*
X40496676Y-103088054D01*
X40505214Y-103103649D01*
X40581715Y-103205724D01*
X40594276Y-103218285D01*
X40696351Y-103294786D01*
X40711946Y-103303324D01*
X40832394Y-103348478D01*
X40847649Y-103352105D01*
X40898514Y-103357631D01*
X40905328Y-103358000D01*
X41977885Y-103358000D01*
X41993124Y-103353525D01*
X41994329Y-103352135D01*
X41996000Y-103344452D01*
X41996000Y-103339884D01*
X42504000Y-103339884D01*
X42508475Y-103355123D01*
X42509865Y-103356328D01*
X42517548Y-103357999D01*
X43594669Y-103357999D01*
X43601490Y-103357629D01*
X43652352Y-103352105D01*
X43667604Y-103348479D01*
X43788054Y-103303324D01*
X43803649Y-103294786D01*
X43905724Y-103218285D01*
X43918285Y-103205724D01*
X43994786Y-103103649D01*
X44003324Y-103088054D01*
X44048478Y-102967606D01*
X44052105Y-102952351D01*
X44057631Y-102901486D01*
X44058000Y-102894672D01*
X44058000Y-102894669D01*
X47942001Y-102894669D01*
X47942371Y-102901490D01*
X47947895Y-102952352D01*
X47951521Y-102967604D01*
X47996676Y-103088054D01*
X48005214Y-103103649D01*
X48081715Y-103205724D01*
X48094276Y-103218285D01*
X48196351Y-103294786D01*
X48211946Y-103303324D01*
X48332394Y-103348478D01*
X48347649Y-103352105D01*
X48398514Y-103357631D01*
X48405328Y-103358000D01*
X49477885Y-103358000D01*
X49493124Y-103353525D01*
X49494329Y-103352135D01*
X49496000Y-103344452D01*
X49496000Y-103339884D01*
X50004000Y-103339884D01*
X50008475Y-103355123D01*
X50009865Y-103356328D01*
X50017548Y-103357999D01*
X51094669Y-103357999D01*
X51101490Y-103357629D01*
X51152352Y-103352105D01*
X51167604Y-103348479D01*
X51288054Y-103303324D01*
X51303649Y-103294786D01*
X51405724Y-103218285D01*
X51418285Y-103205724D01*
X51494786Y-103103649D01*
X51503324Y-103088054D01*
X51548478Y-102967606D01*
X51552105Y-102952351D01*
X51557631Y-102901486D01*
X51558000Y-102894672D01*
X51558000Y-102894669D01*
X52942001Y-102894669D01*
X52942371Y-102901490D01*
X52947895Y-102952352D01*
X52951521Y-102967604D01*
X52996676Y-103088054D01*
X53005214Y-103103649D01*
X53081715Y-103205724D01*
X53094276Y-103218285D01*
X53196351Y-103294786D01*
X53211946Y-103303324D01*
X53332394Y-103348478D01*
X53347649Y-103352105D01*
X53398514Y-103357631D01*
X53405328Y-103358000D01*
X54327885Y-103358000D01*
X54343124Y-103353525D01*
X54344329Y-103352135D01*
X54346000Y-103344452D01*
X54346000Y-103339884D01*
X54854000Y-103339884D01*
X54858475Y-103355123D01*
X54859865Y-103356328D01*
X54867548Y-103357999D01*
X55701893Y-103357999D01*
X55701929Y-103358000D01*
X55977885Y-103358000D01*
X55993124Y-103353525D01*
X55994329Y-103352135D01*
X55996000Y-103344452D01*
X55996000Y-103339884D01*
X56504000Y-103339884D01*
X56508475Y-103355123D01*
X56509865Y-103356328D01*
X56517548Y-103357999D01*
X56794669Y-103357999D01*
X56801490Y-103357629D01*
X56852352Y-103352105D01*
X56867604Y-103348479D01*
X56988054Y-103303324D01*
X57003649Y-103294786D01*
X57105724Y-103218285D01*
X57118285Y-103205724D01*
X57194786Y-103103649D01*
X57203324Y-103088054D01*
X57248478Y-102967606D01*
X57252105Y-102952351D01*
X57257631Y-102901486D01*
X57258000Y-102894672D01*
X57258000Y-102622115D01*
X57253525Y-102606876D01*
X57252135Y-102605671D01*
X57244452Y-102604000D01*
X56522115Y-102604000D01*
X56506876Y-102608475D01*
X56505671Y-102609865D01*
X56504000Y-102617548D01*
X56504000Y-103339884D01*
X55996000Y-103339884D01*
X55996000Y-102622115D01*
X55991525Y-102606876D01*
X55990135Y-102605671D01*
X55982452Y-102604000D01*
X54872115Y-102604000D01*
X54856876Y-102608475D01*
X54855671Y-102609865D01*
X54854000Y-102617548D01*
X54854000Y-103339884D01*
X54346000Y-103339884D01*
X54346000Y-102622115D01*
X54341525Y-102606876D01*
X54340135Y-102605671D01*
X54332452Y-102604000D01*
X52960116Y-102604000D01*
X52944877Y-102608475D01*
X52943672Y-102609865D01*
X52942001Y-102617548D01*
X52942001Y-102894669D01*
X51558000Y-102894669D01*
X51558000Y-102622115D01*
X51553525Y-102606876D01*
X51552135Y-102605671D01*
X51544452Y-102604000D01*
X50022115Y-102604000D01*
X50006876Y-102608475D01*
X50005671Y-102609865D01*
X50004000Y-102617548D01*
X50004000Y-103339884D01*
X49496000Y-103339884D01*
X49496000Y-102622115D01*
X49491525Y-102606876D01*
X49490135Y-102605671D01*
X49482452Y-102604000D01*
X47960116Y-102604000D01*
X47944877Y-102608475D01*
X47943672Y-102609865D01*
X47942001Y-102617548D01*
X47942001Y-102894669D01*
X44058000Y-102894669D01*
X44058000Y-102622115D01*
X44053525Y-102606876D01*
X44052135Y-102605671D01*
X44044452Y-102604000D01*
X42522115Y-102604000D01*
X42506876Y-102608475D01*
X42505671Y-102609865D01*
X42504000Y-102617548D01*
X42504000Y-103339884D01*
X41996000Y-103339884D01*
X41996000Y-102622115D01*
X41991525Y-102606876D01*
X41990135Y-102605671D01*
X41982452Y-102604000D01*
X40460116Y-102604000D01*
X40444877Y-102608475D01*
X40443672Y-102609865D01*
X40442001Y-102617548D01*
X40442001Y-102894669D01*
X39058000Y-102894669D01*
X39058000Y-102622115D01*
X39053525Y-102606876D01*
X39052135Y-102605671D01*
X39044452Y-102604000D01*
X37672115Y-102604000D01*
X37656876Y-102608475D01*
X37655671Y-102609865D01*
X37654000Y-102617548D01*
X37654000Y-103339884D01*
X37146000Y-103339884D01*
X37146000Y-102622115D01*
X37141525Y-102606876D01*
X37140135Y-102605671D01*
X37132452Y-102604000D01*
X36022115Y-102604000D01*
X36006876Y-102608475D01*
X36005671Y-102609865D01*
X36004000Y-102617548D01*
X36004000Y-103339884D01*
X35496000Y-103339884D01*
X35496000Y-102622115D01*
X35491525Y-102606876D01*
X35490135Y-102605671D01*
X35482452Y-102604000D01*
X34760116Y-102604000D01*
X34744877Y-102608475D01*
X34743672Y-102609865D01*
X34742001Y-102617548D01*
X34742001Y-102894669D01*
X28811129Y-102894669D01*
X28592793Y-102676333D01*
X28583968Y-102666532D01*
X28378495Y-102412794D01*
X28370742Y-102402124D01*
X28192912Y-102128288D01*
X28186318Y-102116867D01*
X28038084Y-101825943D01*
X28032720Y-101813894D01*
X27915714Y-101509084D01*
X27911638Y-101496541D01*
X27873860Y-101355549D01*
X27827131Y-101181155D01*
X27824389Y-101168255D01*
X27773311Y-100845763D01*
X27771933Y-100832646D01*
X27770984Y-100814540D01*
X27756711Y-100542186D01*
X29141018Y-100542186D01*
X29166579Y-100810100D01*
X29167664Y-100814534D01*
X29167665Y-100814540D01*
X29202886Y-100958475D01*
X29230547Y-101071518D01*
X29331583Y-101320963D01*
X29467569Y-101553210D01*
X29578614Y-101692065D01*
X29623066Y-101747649D01*
X29635658Y-101763395D01*
X29832327Y-101947113D01*
X30053457Y-102100516D01*
X30294416Y-102220391D01*
X30298750Y-102221812D01*
X30298753Y-102221813D01*
X30545823Y-102302807D01*
X30545829Y-102302808D01*
X30550156Y-102304227D01*
X30554647Y-102305007D01*
X30554648Y-102305007D01*
X30811538Y-102349611D01*
X30811546Y-102349612D01*
X30815319Y-102350267D01*
X30819156Y-102350458D01*
X30898777Y-102354422D01*
X30898785Y-102354422D01*
X30900348Y-102354500D01*
X31068374Y-102354500D01*
X31070642Y-102354335D01*
X31070654Y-102354335D01*
X31201457Y-102344844D01*
X31268425Y-102339985D01*
X31272880Y-102339001D01*
X31272883Y-102339001D01*
X31526770Y-102282947D01*
X31526772Y-102282946D01*
X31531226Y-102281963D01*
X31782900Y-102186613D01*
X31908467Y-102116867D01*
X31978648Y-102077885D01*
X34742000Y-102077885D01*
X34746475Y-102093124D01*
X34747865Y-102094329D01*
X34755548Y-102096000D01*
X35477885Y-102096000D01*
X35493124Y-102091525D01*
X35494329Y-102090135D01*
X35496000Y-102082452D01*
X35496000Y-102077885D01*
X36004000Y-102077885D01*
X36008475Y-102093124D01*
X36009865Y-102094329D01*
X36017548Y-102096000D01*
X37127885Y-102096000D01*
X37143124Y-102091525D01*
X37144329Y-102090135D01*
X37146000Y-102082452D01*
X37146000Y-102077885D01*
X37654000Y-102077885D01*
X37658475Y-102093124D01*
X37659865Y-102094329D01*
X37667548Y-102096000D01*
X39039884Y-102096000D01*
X39055123Y-102091525D01*
X39056328Y-102090135D01*
X39057999Y-102082452D01*
X39057999Y-102077885D01*
X40442000Y-102077885D01*
X40446475Y-102093124D01*
X40447865Y-102094329D01*
X40455548Y-102096000D01*
X41977885Y-102096000D01*
X41993124Y-102091525D01*
X41994329Y-102090135D01*
X41996000Y-102082452D01*
X41996000Y-102077885D01*
X42504000Y-102077885D01*
X42508475Y-102093124D01*
X42509865Y-102094329D01*
X42517548Y-102096000D01*
X44039884Y-102096000D01*
X44055123Y-102091525D01*
X44056328Y-102090135D01*
X44057999Y-102082452D01*
X44057999Y-102077885D01*
X47942000Y-102077885D01*
X47946475Y-102093124D01*
X47947865Y-102094329D01*
X47955548Y-102096000D01*
X49477885Y-102096000D01*
X49493124Y-102091525D01*
X49494329Y-102090135D01*
X49496000Y-102082452D01*
X49496000Y-102077885D01*
X50004000Y-102077885D01*
X50008475Y-102093124D01*
X50009865Y-102094329D01*
X50017548Y-102096000D01*
X51539884Y-102096000D01*
X51555123Y-102091525D01*
X51556328Y-102090135D01*
X51557999Y-102082452D01*
X51557999Y-102077885D01*
X52942000Y-102077885D01*
X52946475Y-102093124D01*
X52947865Y-102094329D01*
X52955548Y-102096000D01*
X54327885Y-102096000D01*
X54343124Y-102091525D01*
X54344329Y-102090135D01*
X54346000Y-102082452D01*
X54346000Y-102077885D01*
X54854000Y-102077885D01*
X54858475Y-102093124D01*
X54859865Y-102094329D01*
X54867548Y-102096000D01*
X55977885Y-102096000D01*
X55993124Y-102091525D01*
X55994329Y-102090135D01*
X55996000Y-102082452D01*
X55996000Y-102077885D01*
X56504000Y-102077885D01*
X56508475Y-102093124D01*
X56509865Y-102094329D01*
X56517548Y-102096000D01*
X57239884Y-102096000D01*
X57255123Y-102091525D01*
X57256328Y-102090135D01*
X57257999Y-102082452D01*
X57257999Y-101898105D01*
X57258000Y-101898073D01*
X57258000Y-100972115D01*
X57253525Y-100956876D01*
X57252135Y-100955671D01*
X57244452Y-100954000D01*
X56522115Y-100954000D01*
X56506876Y-100958475D01*
X56505671Y-100959865D01*
X56504000Y-100967548D01*
X56504000Y-102077885D01*
X55996000Y-102077885D01*
X55996000Y-100972115D01*
X55991525Y-100956876D01*
X55990135Y-100955671D01*
X55982452Y-100954000D01*
X55260116Y-100954000D01*
X55244877Y-100958475D01*
X55243672Y-100959865D01*
X55242001Y-100967548D01*
X55242001Y-101216000D01*
X55221999Y-101284121D01*
X55168343Y-101330614D01*
X55116001Y-101342000D01*
X54872115Y-101342000D01*
X54856876Y-101346475D01*
X54855671Y-101347865D01*
X54854000Y-101355548D01*
X54854000Y-102077885D01*
X54346000Y-102077885D01*
X54346000Y-101360115D01*
X54341525Y-101344876D01*
X54340135Y-101343671D01*
X54332452Y-101342000D01*
X53405331Y-101342001D01*
X53398510Y-101342371D01*
X53347648Y-101347895D01*
X53332396Y-101351521D01*
X53211946Y-101396676D01*
X53196351Y-101405214D01*
X53094276Y-101481715D01*
X53081715Y-101494276D01*
X53005214Y-101596351D01*
X52996676Y-101611946D01*
X52951522Y-101732394D01*
X52947895Y-101747649D01*
X52942369Y-101798514D01*
X52942000Y-101805328D01*
X52942000Y-102077885D01*
X51557999Y-102077885D01*
X51557999Y-101805331D01*
X51557629Y-101798510D01*
X51552105Y-101747648D01*
X51548479Y-101732396D01*
X51503324Y-101611946D01*
X51494786Y-101596351D01*
X51418285Y-101494276D01*
X51405724Y-101481715D01*
X51303649Y-101405214D01*
X51288054Y-101396676D01*
X51167606Y-101351522D01*
X51152351Y-101347895D01*
X51101486Y-101342369D01*
X51094672Y-101342000D01*
X50022115Y-101342000D01*
X50006876Y-101346475D01*
X50005671Y-101347865D01*
X50004000Y-101355548D01*
X50004000Y-102077885D01*
X49496000Y-102077885D01*
X49496000Y-101360116D01*
X49491525Y-101344877D01*
X49490135Y-101343672D01*
X49482452Y-101342001D01*
X48405331Y-101342001D01*
X48398510Y-101342371D01*
X48347648Y-101347895D01*
X48332396Y-101351521D01*
X48211946Y-101396676D01*
X48196351Y-101405214D01*
X48094276Y-101481715D01*
X48081715Y-101494276D01*
X48005214Y-101596351D01*
X47996676Y-101611946D01*
X47951522Y-101732394D01*
X47947895Y-101747649D01*
X47942369Y-101798514D01*
X47942000Y-101805328D01*
X47942000Y-102077885D01*
X44057999Y-102077885D01*
X44057999Y-101805331D01*
X44057629Y-101798510D01*
X44052105Y-101747648D01*
X44048479Y-101732396D01*
X44003324Y-101611946D01*
X43994786Y-101596351D01*
X43918285Y-101494276D01*
X43905724Y-101481715D01*
X43803649Y-101405214D01*
X43788054Y-101396676D01*
X43667606Y-101351522D01*
X43652351Y-101347895D01*
X43601486Y-101342369D01*
X43594672Y-101342000D01*
X42522115Y-101342000D01*
X42506876Y-101346475D01*
X42505671Y-101347865D01*
X42504000Y-101355548D01*
X42504000Y-102077885D01*
X41996000Y-102077885D01*
X41996000Y-101360116D01*
X41991525Y-101344877D01*
X41990135Y-101343672D01*
X41982452Y-101342001D01*
X40905331Y-101342001D01*
X40898510Y-101342371D01*
X40847648Y-101347895D01*
X40832396Y-101351521D01*
X40711946Y-101396676D01*
X40696351Y-101405214D01*
X40594276Y-101481715D01*
X40581715Y-101494276D01*
X40505214Y-101596351D01*
X40496676Y-101611946D01*
X40451522Y-101732394D01*
X40447895Y-101747649D01*
X40442369Y-101798514D01*
X40442000Y-101805328D01*
X40442000Y-102077885D01*
X39057999Y-102077885D01*
X39057999Y-101805331D01*
X39057629Y-101798510D01*
X39052105Y-101747648D01*
X39048479Y-101732396D01*
X39003324Y-101611946D01*
X38994786Y-101596351D01*
X38918285Y-101494276D01*
X38905724Y-101481715D01*
X38803649Y-101405214D01*
X38788054Y-101396676D01*
X38667606Y-101351522D01*
X38652351Y-101347895D01*
X38601486Y-101342369D01*
X38594672Y-101342000D01*
X37672115Y-101342001D01*
X37656876Y-101346476D01*
X37655671Y-101347866D01*
X37654000Y-101355549D01*
X37654000Y-102077885D01*
X37146000Y-102077885D01*
X37146000Y-101360116D01*
X37141525Y-101344877D01*
X37140135Y-101343672D01*
X37132452Y-101342001D01*
X36884000Y-101342001D01*
X36815879Y-101321999D01*
X36769386Y-101268343D01*
X36758000Y-101216001D01*
X36758000Y-100972115D01*
X36753525Y-100956876D01*
X36752135Y-100955671D01*
X36744452Y-100954000D01*
X36022115Y-100954000D01*
X36006876Y-100958475D01*
X36005671Y-100959865D01*
X36004000Y-100967548D01*
X36004000Y-102077885D01*
X35496000Y-102077885D01*
X35496000Y-100972115D01*
X35491525Y-100956876D01*
X35490135Y-100955671D01*
X35482452Y-100954000D01*
X34760116Y-100954000D01*
X34744877Y-100958475D01*
X34743672Y-100959865D01*
X34742001Y-100967548D01*
X34742001Y-101801893D01*
X34742000Y-101801912D01*
X34742000Y-102077885D01*
X31978648Y-102077885D01*
X32014179Y-102058149D01*
X32014180Y-102058148D01*
X32018172Y-102055931D01*
X32172020Y-101938518D01*
X32228491Y-101895421D01*
X32228495Y-101895417D01*
X32232116Y-101892654D01*
X32420249Y-101700203D01*
X32527242Y-101553210D01*
X32575942Y-101486304D01*
X32575947Y-101486297D01*
X32578630Y-101482610D01*
X32703941Y-101244433D01*
X32793557Y-100990662D01*
X32824702Y-100832646D01*
X32844720Y-100731083D01*
X32844721Y-100731077D01*
X32845601Y-100726611D01*
X32854782Y-100542186D01*
X59141018Y-100542186D01*
X59166579Y-100810100D01*
X59167664Y-100814534D01*
X59167665Y-100814540D01*
X59202886Y-100958475D01*
X59230547Y-101071518D01*
X59331583Y-101320963D01*
X59467569Y-101553210D01*
X59578614Y-101692065D01*
X59623066Y-101747649D01*
X59635658Y-101763395D01*
X59832327Y-101947113D01*
X60053457Y-102100516D01*
X60294416Y-102220391D01*
X60298750Y-102221812D01*
X60298753Y-102221813D01*
X60545823Y-102302807D01*
X60545829Y-102302808D01*
X60550156Y-102304227D01*
X60554647Y-102305007D01*
X60554648Y-102305007D01*
X60811538Y-102349611D01*
X60811546Y-102349612D01*
X60815319Y-102350267D01*
X60819156Y-102350458D01*
X60898777Y-102354422D01*
X60898785Y-102354422D01*
X60900348Y-102354500D01*
X61068374Y-102354500D01*
X61070642Y-102354335D01*
X61070654Y-102354335D01*
X61201457Y-102344844D01*
X61268425Y-102339985D01*
X61272880Y-102339001D01*
X61272883Y-102339001D01*
X61526770Y-102282947D01*
X61526772Y-102282946D01*
X61531226Y-102281963D01*
X61782900Y-102186613D01*
X61908467Y-102116867D01*
X62014179Y-102058149D01*
X62014180Y-102058148D01*
X62018172Y-102055931D01*
X62172020Y-101938518D01*
X62228491Y-101895421D01*
X62228495Y-101895417D01*
X62232116Y-101892654D01*
X62420249Y-101700203D01*
X62527242Y-101553210D01*
X62575942Y-101486304D01*
X62575947Y-101486297D01*
X62578630Y-101482610D01*
X62703941Y-101244433D01*
X62793557Y-100990662D01*
X62824702Y-100832646D01*
X62844720Y-100731083D01*
X62844721Y-100731077D01*
X62845601Y-100726611D01*
X62854782Y-100542186D01*
X62858755Y-100462383D01*
X62858755Y-100462377D01*
X62858982Y-100457814D01*
X62833421Y-100189900D01*
X62769453Y-99928482D01*
X62668417Y-99679037D01*
X62532431Y-99446790D01*
X62364342Y-99236605D01*
X62167673Y-99052887D01*
X61946543Y-98899484D01*
X61705584Y-98779609D01*
X61701250Y-98778188D01*
X61701247Y-98778187D01*
X61454177Y-98697193D01*
X61454171Y-98697192D01*
X61449844Y-98695773D01*
X61445352Y-98694993D01*
X61188462Y-98650389D01*
X61188454Y-98650388D01*
X61184681Y-98649733D01*
X61174718Y-98649237D01*
X61101223Y-98645578D01*
X61101215Y-98645578D01*
X61099652Y-98645500D01*
X60931626Y-98645500D01*
X60929358Y-98645665D01*
X60929346Y-98645665D01*
X60798543Y-98655156D01*
X60731575Y-98660015D01*
X60727120Y-98660999D01*
X60727117Y-98660999D01*
X60473230Y-98717053D01*
X60473228Y-98717054D01*
X60468774Y-98718037D01*
X60217100Y-98813387D01*
X59981828Y-98944069D01*
X59978196Y-98946841D01*
X59771509Y-99104579D01*
X59771505Y-99104583D01*
X59767884Y-99107346D01*
X59579751Y-99299797D01*
X59577066Y-99303486D01*
X59424058Y-99513696D01*
X59424053Y-99513703D01*
X59421370Y-99517390D01*
X59296059Y-99755567D01*
X59206443Y-100009338D01*
X59205560Y-100013820D01*
X59170855Y-100189900D01*
X59154399Y-100273389D01*
X59154172Y-100277942D01*
X59154172Y-100277945D01*
X59141348Y-100535567D01*
X59141018Y-100542186D01*
X32854782Y-100542186D01*
X32858755Y-100462383D01*
X32858755Y-100462377D01*
X32858982Y-100457814D01*
X32856127Y-100427885D01*
X34742000Y-100427885D01*
X34746475Y-100443124D01*
X34747865Y-100444329D01*
X34755548Y-100446000D01*
X35477885Y-100446000D01*
X35493124Y-100441525D01*
X35494329Y-100440135D01*
X35496000Y-100432452D01*
X35496000Y-100427885D01*
X36004000Y-100427885D01*
X36008475Y-100443124D01*
X36009865Y-100444329D01*
X36017548Y-100446000D01*
X36739885Y-100446000D01*
X36755124Y-100441525D01*
X36756329Y-100440135D01*
X36758000Y-100432452D01*
X36757999Y-99505331D01*
X36757999Y-99505328D01*
X55242000Y-99505328D01*
X55242001Y-100427885D01*
X55246476Y-100443124D01*
X55247866Y-100444329D01*
X55255549Y-100446000D01*
X55977885Y-100446000D01*
X55993124Y-100441525D01*
X55994329Y-100440135D01*
X55996000Y-100432452D01*
X55996000Y-100427885D01*
X56504000Y-100427885D01*
X56508475Y-100443124D01*
X56509865Y-100444329D01*
X56517548Y-100446000D01*
X57239884Y-100446000D01*
X57255123Y-100441525D01*
X57256328Y-100440135D01*
X57257999Y-100432452D01*
X57257999Y-99505331D01*
X57257629Y-99498510D01*
X57252105Y-99447648D01*
X57248479Y-99432396D01*
X57203324Y-99311946D01*
X57194786Y-99296351D01*
X57118285Y-99194276D01*
X57105724Y-99181715D01*
X57003649Y-99105214D01*
X56988054Y-99096676D01*
X56867606Y-99051522D01*
X56852351Y-99047895D01*
X56801486Y-99042369D01*
X56794672Y-99042000D01*
X56522115Y-99042000D01*
X56506876Y-99046475D01*
X56505671Y-99047865D01*
X56504000Y-99055548D01*
X56504000Y-100427885D01*
X55996000Y-100427885D01*
X55996000Y-99060116D01*
X55991525Y-99044877D01*
X55990135Y-99043672D01*
X55982452Y-99042001D01*
X55705331Y-99042001D01*
X55698510Y-99042371D01*
X55647648Y-99047895D01*
X55632396Y-99051521D01*
X55511946Y-99096676D01*
X55496351Y-99105214D01*
X55394276Y-99181715D01*
X55381715Y-99194276D01*
X55305214Y-99296351D01*
X55296676Y-99311946D01*
X55251522Y-99432394D01*
X55247895Y-99447649D01*
X55242369Y-99498514D01*
X55242000Y-99505328D01*
X36757999Y-99505328D01*
X36757629Y-99498510D01*
X36752105Y-99447648D01*
X36748479Y-99432396D01*
X36703324Y-99311946D01*
X36694786Y-99296351D01*
X36618285Y-99194276D01*
X36605724Y-99181715D01*
X36503649Y-99105214D01*
X36488054Y-99096676D01*
X36367606Y-99051522D01*
X36352351Y-99047895D01*
X36301486Y-99042369D01*
X36294672Y-99042000D01*
X36022115Y-99042000D01*
X36006876Y-99046475D01*
X36005671Y-99047865D01*
X36004000Y-99055548D01*
X36004000Y-100427885D01*
X35496000Y-100427885D01*
X35496000Y-99060116D01*
X35491525Y-99044877D01*
X35490135Y-99043672D01*
X35482452Y-99042001D01*
X35205331Y-99042001D01*
X35198510Y-99042371D01*
X35147648Y-99047895D01*
X35132396Y-99051521D01*
X35011946Y-99096676D01*
X34996351Y-99105214D01*
X34894276Y-99181715D01*
X34881715Y-99194276D01*
X34805214Y-99296351D01*
X34796676Y-99311946D01*
X34751522Y-99432394D01*
X34747895Y-99447649D01*
X34742369Y-99498514D01*
X34742000Y-99505328D01*
X34742000Y-100427885D01*
X32856127Y-100427885D01*
X32833421Y-100189900D01*
X32769453Y-99928482D01*
X32668417Y-99679037D01*
X32532431Y-99446790D01*
X32364342Y-99236605D01*
X32167673Y-99052887D01*
X31946543Y-98899484D01*
X31705584Y-98779609D01*
X31701250Y-98778188D01*
X31701247Y-98778187D01*
X31454177Y-98697193D01*
X31454171Y-98697192D01*
X31449844Y-98695773D01*
X31445352Y-98694993D01*
X31188462Y-98650389D01*
X31188454Y-98650388D01*
X31184681Y-98649733D01*
X31174718Y-98649237D01*
X31101223Y-98645578D01*
X31101215Y-98645578D01*
X31099652Y-98645500D01*
X30931626Y-98645500D01*
X30929358Y-98645665D01*
X30929346Y-98645665D01*
X30798543Y-98655156D01*
X30731575Y-98660015D01*
X30727120Y-98660999D01*
X30727117Y-98660999D01*
X30473230Y-98717053D01*
X30473228Y-98717054D01*
X30468774Y-98718037D01*
X30217100Y-98813387D01*
X29981828Y-98944069D01*
X29978196Y-98946841D01*
X29771509Y-99104579D01*
X29771505Y-99104583D01*
X29767884Y-99107346D01*
X29579751Y-99299797D01*
X29577066Y-99303486D01*
X29424058Y-99513696D01*
X29424053Y-99513703D01*
X29421370Y-99517390D01*
X29296059Y-99755567D01*
X29206443Y-100009338D01*
X29205560Y-100013820D01*
X29170855Y-100189900D01*
X29154399Y-100273389D01*
X29154172Y-100277942D01*
X29154172Y-100277945D01*
X29141348Y-100535567D01*
X29141018Y-100542186D01*
X27756711Y-100542186D01*
X27756364Y-100535565D01*
X27757156Y-100524580D01*
X27757065Y-100524580D01*
X27757065Y-100512172D01*
X27759486Y-100500000D01*
X27756921Y-100487103D01*
X27754500Y-100462524D01*
X27754500Y-97194669D01*
X34742001Y-97194669D01*
X34742371Y-97201490D01*
X34747895Y-97252352D01*
X34751521Y-97267604D01*
X34796676Y-97388054D01*
X34805214Y-97403649D01*
X34881715Y-97505724D01*
X34894276Y-97518285D01*
X34996351Y-97594786D01*
X35011946Y-97603324D01*
X35132394Y-97648478D01*
X35147649Y-97652105D01*
X35198514Y-97657631D01*
X35205328Y-97658000D01*
X35477885Y-97658000D01*
X35493124Y-97653525D01*
X35494329Y-97652135D01*
X35496000Y-97644452D01*
X35496000Y-96122115D01*
X35491525Y-96106876D01*
X35490135Y-96105671D01*
X35482452Y-96104000D01*
X34760116Y-96104000D01*
X34744877Y-96108475D01*
X34743672Y-96109865D01*
X34742001Y-96117548D01*
X34742001Y-97194669D01*
X27754500Y-97194669D01*
X27754500Y-94219667D01*
X27774502Y-94151546D01*
X27828158Y-94105053D01*
X27898432Y-94094949D01*
X27906837Y-94096450D01*
G37*
%TD.AperFunction*%
%TA.AperFunction,Conductor*%
G36*
X60987103Y-80256921D02*
G01*
X61000000Y-80259486D01*
X61012172Y-80257065D01*
X61024580Y-80257065D01*
X61024580Y-80257156D01*
X61035565Y-80256364D01*
X61332647Y-80271933D01*
X61345763Y-80273311D01*
X61668255Y-80324389D01*
X61681155Y-80327131D01*
X61996541Y-80411638D01*
X62009084Y-80415714D01*
X62313894Y-80532720D01*
X62325943Y-80538084D01*
X62616867Y-80686318D01*
X62628288Y-80692912D01*
X62902124Y-80870742D01*
X62912794Y-80878495D01*
X63166532Y-81083968D01*
X63176333Y-81092793D01*
X63407207Y-81323667D01*
X63416032Y-81333468D01*
X63621505Y-81587206D01*
X63629258Y-81597876D01*
X63807088Y-81871712D01*
X63813682Y-81883133D01*
X63961916Y-82174057D01*
X63967280Y-82186106D01*
X64084286Y-82490916D01*
X64088362Y-82503459D01*
X64172869Y-82818845D01*
X64175611Y-82831745D01*
X64226689Y-83154237D01*
X64228067Y-83167353D01*
X64243529Y-83462383D01*
X64243636Y-83464433D01*
X64242844Y-83475420D01*
X64242935Y-83475420D01*
X64242935Y-83487828D01*
X64240514Y-83500000D01*
X64242935Y-83512170D01*
X64243079Y-83512894D01*
X64245500Y-83537476D01*
X64245500Y-89874000D01*
X64225498Y-89942121D01*
X64171842Y-89988614D01*
X64119500Y-90000000D01*
X57343156Y-90000000D01*
X57275035Y-89979998D01*
X57228542Y-89926342D01*
X57218438Y-89856068D01*
X57225174Y-89829771D01*
X57248478Y-89767609D01*
X57252105Y-89752351D01*
X57257631Y-89701486D01*
X57258000Y-89694672D01*
X57258000Y-88622115D01*
X57253525Y-88606876D01*
X57252135Y-88605671D01*
X57244452Y-88604000D01*
X56122000Y-88604000D01*
X56053879Y-88583998D01*
X56007386Y-88530342D01*
X55996000Y-88478000D01*
X55996000Y-88077885D01*
X56504000Y-88077885D01*
X56508475Y-88093124D01*
X56509865Y-88094329D01*
X56517548Y-88096000D01*
X57239884Y-88096000D01*
X57255123Y-88091525D01*
X57256328Y-88090135D01*
X57257999Y-88082452D01*
X57257999Y-87005331D01*
X57257629Y-86998510D01*
X57252105Y-86947648D01*
X57248479Y-86932396D01*
X57203324Y-86811946D01*
X57194786Y-86796351D01*
X57118285Y-86694276D01*
X57105724Y-86681715D01*
X57003649Y-86605214D01*
X56988054Y-86596676D01*
X56867606Y-86551522D01*
X56852351Y-86547895D01*
X56801486Y-86542369D01*
X56794672Y-86542000D01*
X56522115Y-86542000D01*
X56506876Y-86546475D01*
X56505671Y-86547865D01*
X56504000Y-86555548D01*
X56504000Y-88077885D01*
X55996000Y-88077885D01*
X55996000Y-86560116D01*
X55991525Y-86544877D01*
X55990135Y-86543672D01*
X55982452Y-86542001D01*
X55705331Y-86542001D01*
X55698510Y-86542371D01*
X55647648Y-86547895D01*
X55632396Y-86551521D01*
X55511946Y-86596676D01*
X55496351Y-86605214D01*
X55394276Y-86681715D01*
X55381715Y-86694276D01*
X55305214Y-86796351D01*
X55296676Y-86811946D01*
X55251522Y-86932394D01*
X55247895Y-86947649D01*
X55242369Y-86998514D01*
X55242000Y-87005328D01*
X55242000Y-88015524D01*
X55221998Y-88083645D01*
X55168342Y-88130138D01*
X55098068Y-88140242D01*
X55072739Y-88132696D01*
X55072525Y-88133342D01*
X54911290Y-88079862D01*
X54897914Y-88076995D01*
X54803562Y-88067328D01*
X54797145Y-88067000D01*
X54572115Y-88067000D01*
X54556876Y-88071475D01*
X54555671Y-88072865D01*
X54554000Y-88080548D01*
X54554000Y-89278000D01*
X54533998Y-89346121D01*
X54480342Y-89392614D01*
X54428000Y-89404000D01*
X53110116Y-89404000D01*
X53094877Y-89408475D01*
X53093672Y-89409865D01*
X53092001Y-89417548D01*
X53092001Y-89522095D01*
X53092339Y-89528617D01*
X53095698Y-89560998D01*
X53082833Y-89630819D01*
X53034261Y-89682600D01*
X52970371Y-89700000D01*
X51826000Y-89700000D01*
X51757879Y-89679998D01*
X51711386Y-89626342D01*
X51700000Y-89574000D01*
X51700000Y-88877885D01*
X53092000Y-88877885D01*
X53096475Y-88893124D01*
X53097865Y-88894329D01*
X53105548Y-88896000D01*
X54027885Y-88896000D01*
X54043124Y-88891525D01*
X54044329Y-88890135D01*
X54046000Y-88882452D01*
X54046000Y-88085116D01*
X54041525Y-88069877D01*
X54040135Y-88068672D01*
X54032452Y-88067001D01*
X53802905Y-88067001D01*
X53796386Y-88067338D01*
X53700794Y-88077257D01*
X53687400Y-88080149D01*
X53533216Y-88131588D01*
X53520038Y-88137761D01*
X53382193Y-88223063D01*
X53370792Y-88232099D01*
X53256261Y-88346829D01*
X53247249Y-88358240D01*
X53162184Y-88496243D01*
X53156037Y-88509424D01*
X53104862Y-88663710D01*
X53101995Y-88677086D01*
X53092328Y-88771438D01*
X53092000Y-88777855D01*
X53092000Y-88877885D01*
X51700000Y-88877885D01*
X51700000Y-88100000D01*
X49817851Y-88100000D01*
X49749730Y-88079998D01*
X49721613Y-88047549D01*
X49702135Y-88030671D01*
X49694452Y-88029000D01*
X47310116Y-88029000D01*
X47294876Y-88033475D01*
X47274914Y-88056512D01*
X47215188Y-88094896D01*
X47179690Y-88100000D01*
X44817851Y-88100000D01*
X44749730Y-88079998D01*
X44721613Y-88047549D01*
X44702135Y-88030671D01*
X44694452Y-88029000D01*
X42310116Y-88029000D01*
X42294876Y-88033475D01*
X42274914Y-88056512D01*
X42215188Y-88094896D01*
X42179690Y-88100000D01*
X40400000Y-88100000D01*
X40400000Y-89274000D01*
X40379998Y-89342121D01*
X40326342Y-89388614D01*
X40274000Y-89400000D01*
X37572000Y-89400000D01*
X37503879Y-89379998D01*
X37457386Y-89326342D01*
X37446000Y-89274000D01*
X37446000Y-88902885D01*
X37954000Y-88902885D01*
X37958475Y-88918124D01*
X37959865Y-88919329D01*
X37967548Y-88921000D01*
X38889884Y-88921000D01*
X38905123Y-88916525D01*
X38906328Y-88915135D01*
X38907999Y-88907452D01*
X38907999Y-88802905D01*
X38907662Y-88796386D01*
X38897743Y-88700794D01*
X38894851Y-88687400D01*
X38843412Y-88533216D01*
X38837239Y-88520038D01*
X38751937Y-88382193D01*
X38742901Y-88370792D01*
X38628171Y-88256261D01*
X38616760Y-88247249D01*
X38478757Y-88162184D01*
X38465576Y-88156037D01*
X38311290Y-88104862D01*
X38297914Y-88101995D01*
X38203562Y-88092328D01*
X38197145Y-88092000D01*
X37972115Y-88092000D01*
X37956876Y-88096475D01*
X37955671Y-88097865D01*
X37954000Y-88105548D01*
X37954000Y-88902885D01*
X37446000Y-88902885D01*
X37446000Y-88110116D01*
X37441525Y-88094877D01*
X37440135Y-88093672D01*
X37432452Y-88092001D01*
X37202905Y-88092001D01*
X37196386Y-88092338D01*
X37100794Y-88102257D01*
X37087400Y-88105149D01*
X36926268Y-88158906D01*
X36925448Y-88156448D01*
X36867277Y-88165388D01*
X36802413Y-88136523D01*
X36763453Y-88077171D01*
X36757999Y-88040503D01*
X36757999Y-87502885D01*
X42292000Y-87502885D01*
X42296475Y-87518124D01*
X42297865Y-87519329D01*
X42305548Y-87521000D01*
X43227885Y-87521000D01*
X43243124Y-87516525D01*
X43244329Y-87515135D01*
X43246000Y-87507452D01*
X43246000Y-87502885D01*
X43754000Y-87502885D01*
X43758475Y-87518124D01*
X43759865Y-87519329D01*
X43767548Y-87521000D01*
X44689884Y-87521000D01*
X44705123Y-87516525D01*
X44706328Y-87515135D01*
X44707999Y-87507452D01*
X44707999Y-87502885D01*
X47292000Y-87502885D01*
X47296475Y-87518124D01*
X47297865Y-87519329D01*
X47305548Y-87521000D01*
X48227885Y-87521000D01*
X48243124Y-87516525D01*
X48244329Y-87515135D01*
X48246000Y-87507452D01*
X48246000Y-87502885D01*
X48754000Y-87502885D01*
X48758475Y-87518124D01*
X48759865Y-87519329D01*
X48767548Y-87521000D01*
X49689884Y-87521000D01*
X49705123Y-87516525D01*
X49706328Y-87515135D01*
X49707999Y-87507452D01*
X49707999Y-87402905D01*
X49707662Y-87396386D01*
X49697743Y-87300794D01*
X49694851Y-87287400D01*
X49643412Y-87133216D01*
X49637239Y-87120038D01*
X49551937Y-86982193D01*
X49542901Y-86970792D01*
X49428171Y-86856261D01*
X49416760Y-86847249D01*
X49278757Y-86762184D01*
X49265576Y-86756037D01*
X49111290Y-86704862D01*
X49097914Y-86701995D01*
X49003562Y-86692328D01*
X48997145Y-86692000D01*
X48772115Y-86692000D01*
X48756876Y-86696475D01*
X48755671Y-86697865D01*
X48754000Y-86705548D01*
X48754000Y-87502885D01*
X48246000Y-87502885D01*
X48246000Y-86710116D01*
X48241525Y-86694877D01*
X48240135Y-86693672D01*
X48232452Y-86692001D01*
X48002905Y-86692001D01*
X47996386Y-86692338D01*
X47900794Y-86702257D01*
X47887400Y-86705149D01*
X47733216Y-86756588D01*
X47720038Y-86762761D01*
X47582193Y-86848063D01*
X47570792Y-86857099D01*
X47456261Y-86971829D01*
X47447249Y-86983240D01*
X47362184Y-87121243D01*
X47356037Y-87134424D01*
X47304862Y-87288710D01*
X47301995Y-87302086D01*
X47292328Y-87396438D01*
X47292000Y-87402855D01*
X47292000Y-87502885D01*
X44707999Y-87502885D01*
X44707999Y-87402905D01*
X44707662Y-87396386D01*
X44697743Y-87300794D01*
X44694851Y-87287400D01*
X44643412Y-87133216D01*
X44637239Y-87120038D01*
X44551937Y-86982193D01*
X44542901Y-86970792D01*
X44428171Y-86856261D01*
X44416760Y-86847249D01*
X44278757Y-86762184D01*
X44265576Y-86756037D01*
X44111290Y-86704862D01*
X44097914Y-86701995D01*
X44003562Y-86692328D01*
X43997145Y-86692000D01*
X43772115Y-86692000D01*
X43756876Y-86696475D01*
X43755671Y-86697865D01*
X43754000Y-86705548D01*
X43754000Y-87502885D01*
X43246000Y-87502885D01*
X43246000Y-86710116D01*
X43241525Y-86694877D01*
X43240135Y-86693672D01*
X43232452Y-86692001D01*
X43002905Y-86692001D01*
X42996386Y-86692338D01*
X42900794Y-86702257D01*
X42887400Y-86705149D01*
X42733216Y-86756588D01*
X42720038Y-86762761D01*
X42582193Y-86848063D01*
X42570792Y-86857099D01*
X42456261Y-86971829D01*
X42447249Y-86983240D01*
X42362184Y-87121243D01*
X42356037Y-87134424D01*
X42304862Y-87288710D01*
X42301995Y-87302086D01*
X42292328Y-87396438D01*
X42292000Y-87402855D01*
X42292000Y-87502885D01*
X36757999Y-87502885D01*
X36757999Y-87005331D01*
X36757629Y-86998510D01*
X36752105Y-86947648D01*
X36748479Y-86932396D01*
X36703324Y-86811946D01*
X36694786Y-86796351D01*
X36618285Y-86694276D01*
X36605724Y-86681715D01*
X36503649Y-86605214D01*
X36488054Y-86596676D01*
X36367606Y-86551522D01*
X36352351Y-86547895D01*
X36301486Y-86542369D01*
X36294672Y-86542000D01*
X36022115Y-86542000D01*
X36006876Y-86546475D01*
X36005671Y-86547865D01*
X36004000Y-86555548D01*
X36004000Y-88478000D01*
X35983998Y-88546121D01*
X35930342Y-88592614D01*
X35878000Y-88604000D01*
X34760116Y-88604000D01*
X34744877Y-88608475D01*
X34743672Y-88609865D01*
X34742001Y-88617548D01*
X34742001Y-89694669D01*
X34742371Y-89701490D01*
X34748748Y-89760207D01*
X34745262Y-89760586D01*
X34742474Y-89815574D01*
X34701115Y-89873280D01*
X34635123Y-89899466D01*
X34623530Y-89900000D01*
X27880500Y-89900000D01*
X27812379Y-89879998D01*
X27765886Y-89826342D01*
X27754500Y-89774000D01*
X27754500Y-88077885D01*
X34742000Y-88077885D01*
X34746475Y-88093124D01*
X34747865Y-88094329D01*
X34755548Y-88096000D01*
X35477885Y-88096000D01*
X35493124Y-88091525D01*
X35494329Y-88090135D01*
X35496000Y-88082452D01*
X35496000Y-86560116D01*
X35491525Y-86544877D01*
X35490135Y-86543672D01*
X35482452Y-86542001D01*
X35205331Y-86542001D01*
X35198510Y-86542371D01*
X35147648Y-86547895D01*
X35132396Y-86551521D01*
X35011946Y-86596676D01*
X34996351Y-86605214D01*
X34894276Y-86681715D01*
X34881715Y-86694276D01*
X34805214Y-86796351D01*
X34796676Y-86811946D01*
X34751522Y-86932394D01*
X34747895Y-86947649D01*
X34742369Y-86998514D01*
X34742000Y-87005328D01*
X34742000Y-88077885D01*
X27754500Y-88077885D01*
X27754500Y-83542186D01*
X29141018Y-83542186D01*
X29166579Y-83810100D01*
X29230547Y-84071518D01*
X29331583Y-84320963D01*
X29467569Y-84553210D01*
X29635658Y-84763395D01*
X29832327Y-84947113D01*
X30053457Y-85100516D01*
X30294416Y-85220391D01*
X30298750Y-85221812D01*
X30298753Y-85221813D01*
X30545823Y-85302807D01*
X30545829Y-85302808D01*
X30550156Y-85304227D01*
X30554647Y-85305007D01*
X30554648Y-85305007D01*
X30811538Y-85349611D01*
X30811546Y-85349612D01*
X30815319Y-85350267D01*
X30819156Y-85350458D01*
X30898777Y-85354422D01*
X30898785Y-85354422D01*
X30900348Y-85354500D01*
X31068374Y-85354500D01*
X31070642Y-85354335D01*
X31070654Y-85354335D01*
X31201457Y-85344844D01*
X31268425Y-85339985D01*
X31272880Y-85339001D01*
X31272883Y-85339001D01*
X31526770Y-85282947D01*
X31526772Y-85282946D01*
X31531226Y-85281963D01*
X31782900Y-85186613D01*
X31835078Y-85157631D01*
X32014179Y-85058149D01*
X32014180Y-85058148D01*
X32018172Y-85055931D01*
X32164842Y-84943996D01*
X32228491Y-84895421D01*
X32228495Y-84895417D01*
X32232116Y-84892654D01*
X32420249Y-84700203D01*
X32424277Y-84694669D01*
X34742001Y-84694669D01*
X34742371Y-84701490D01*
X34747895Y-84752352D01*
X34751521Y-84767604D01*
X34796676Y-84888054D01*
X34805214Y-84903649D01*
X34881715Y-85005724D01*
X34894276Y-85018285D01*
X34996351Y-85094786D01*
X35011946Y-85103324D01*
X35132394Y-85148478D01*
X35147649Y-85152105D01*
X35198514Y-85157631D01*
X35205328Y-85158000D01*
X35477885Y-85158000D01*
X35493124Y-85153525D01*
X35494329Y-85152135D01*
X35496000Y-85144452D01*
X35496000Y-85139884D01*
X36004000Y-85139884D01*
X36008475Y-85155123D01*
X36009865Y-85156328D01*
X36017548Y-85157999D01*
X36294669Y-85157999D01*
X36301490Y-85157629D01*
X36352352Y-85152105D01*
X36367604Y-85148479D01*
X36488054Y-85103324D01*
X36503649Y-85094786D01*
X36605724Y-85018285D01*
X36618285Y-85005724D01*
X36694786Y-84903649D01*
X36703324Y-84888054D01*
X36748478Y-84767606D01*
X36752105Y-84752351D01*
X36757631Y-84701486D01*
X36758000Y-84694672D01*
X36757999Y-83772115D01*
X36756658Y-83767548D01*
X55242000Y-83767548D01*
X55242001Y-84694669D01*
X55242371Y-84701490D01*
X55247895Y-84752352D01*
X55251521Y-84767604D01*
X55296676Y-84888054D01*
X55305214Y-84903649D01*
X55381715Y-85005724D01*
X55394276Y-85018285D01*
X55496351Y-85094786D01*
X55511946Y-85103324D01*
X55632394Y-85148478D01*
X55647649Y-85152105D01*
X55698514Y-85157631D01*
X55705328Y-85158000D01*
X55977885Y-85158000D01*
X55993124Y-85153525D01*
X55994329Y-85152135D01*
X55996000Y-85144452D01*
X55996000Y-85139884D01*
X56504000Y-85139884D01*
X56508475Y-85155123D01*
X56509865Y-85156328D01*
X56517548Y-85157999D01*
X56794669Y-85157999D01*
X56801490Y-85157629D01*
X56852352Y-85152105D01*
X56867604Y-85148479D01*
X56988054Y-85103324D01*
X57003649Y-85094786D01*
X57105724Y-85018285D01*
X57118285Y-85005724D01*
X57194786Y-84903649D01*
X57203324Y-84888054D01*
X57248478Y-84767606D01*
X57252105Y-84752351D01*
X57257631Y-84701486D01*
X57258000Y-84694672D01*
X57258000Y-83772115D01*
X57253525Y-83756876D01*
X57252135Y-83755671D01*
X57244452Y-83754000D01*
X56522115Y-83754000D01*
X56506876Y-83758475D01*
X56505671Y-83759865D01*
X56504000Y-83767548D01*
X56504000Y-85139884D01*
X55996000Y-85139884D01*
X55996000Y-83772115D01*
X55991525Y-83756876D01*
X55990135Y-83755671D01*
X55982452Y-83754000D01*
X55260115Y-83754000D01*
X55244876Y-83758475D01*
X55243671Y-83759865D01*
X55242000Y-83767548D01*
X36756658Y-83767548D01*
X36753524Y-83756876D01*
X36752134Y-83755671D01*
X36744451Y-83754000D01*
X36022115Y-83754000D01*
X36006876Y-83758475D01*
X36005671Y-83759865D01*
X36004000Y-83767548D01*
X36004000Y-85139884D01*
X35496000Y-85139884D01*
X35496000Y-83772115D01*
X35491525Y-83756876D01*
X35490135Y-83755671D01*
X35482452Y-83754000D01*
X34760116Y-83754000D01*
X34744877Y-83758475D01*
X34743672Y-83759865D01*
X34742001Y-83767548D01*
X34742001Y-84694669D01*
X32424277Y-84694669D01*
X32527242Y-84553210D01*
X32575942Y-84486304D01*
X32575947Y-84486297D01*
X32578630Y-84482610D01*
X32703941Y-84244433D01*
X32793557Y-83990662D01*
X32818688Y-83863156D01*
X32844720Y-83731083D01*
X32844721Y-83731077D01*
X32845601Y-83726611D01*
X32854782Y-83542186D01*
X59141018Y-83542186D01*
X59166579Y-83810100D01*
X59230547Y-84071518D01*
X59331583Y-84320963D01*
X59467569Y-84553210D01*
X59635658Y-84763395D01*
X59832327Y-84947113D01*
X60053457Y-85100516D01*
X60294416Y-85220391D01*
X60298750Y-85221812D01*
X60298753Y-85221813D01*
X60545823Y-85302807D01*
X60545829Y-85302808D01*
X60550156Y-85304227D01*
X60554647Y-85305007D01*
X60554648Y-85305007D01*
X60811538Y-85349611D01*
X60811546Y-85349612D01*
X60815319Y-85350267D01*
X60819156Y-85350458D01*
X60898777Y-85354422D01*
X60898785Y-85354422D01*
X60900348Y-85354500D01*
X61068374Y-85354500D01*
X61070642Y-85354335D01*
X61070654Y-85354335D01*
X61201457Y-85344844D01*
X61268425Y-85339985D01*
X61272880Y-85339001D01*
X61272883Y-85339001D01*
X61526770Y-85282947D01*
X61526772Y-85282946D01*
X61531226Y-85281963D01*
X61782900Y-85186613D01*
X61835078Y-85157631D01*
X62014179Y-85058149D01*
X62014180Y-85058148D01*
X62018172Y-85055931D01*
X62164842Y-84943996D01*
X62228491Y-84895421D01*
X62228495Y-84895417D01*
X62232116Y-84892654D01*
X62420249Y-84700203D01*
X62527242Y-84553210D01*
X62575942Y-84486304D01*
X62575947Y-84486297D01*
X62578630Y-84482610D01*
X62703941Y-84244433D01*
X62793557Y-83990662D01*
X62818688Y-83863156D01*
X62844720Y-83731083D01*
X62844721Y-83731077D01*
X62845601Y-83726611D01*
X62854782Y-83542186D01*
X62858755Y-83462383D01*
X62858755Y-83462377D01*
X62858982Y-83457814D01*
X62833421Y-83189900D01*
X62827905Y-83167354D01*
X62770539Y-82932920D01*
X62769453Y-82928482D01*
X62668417Y-82679037D01*
X62532431Y-82446790D01*
X62364342Y-82236605D01*
X62167673Y-82052887D01*
X61946543Y-81899484D01*
X61705584Y-81779609D01*
X61701250Y-81778188D01*
X61701247Y-81778187D01*
X61454177Y-81697193D01*
X61454171Y-81697192D01*
X61449844Y-81695773D01*
X61445352Y-81694993D01*
X61188462Y-81650389D01*
X61188454Y-81650388D01*
X61184681Y-81649733D01*
X61174718Y-81649237D01*
X61101223Y-81645578D01*
X61101215Y-81645578D01*
X61099652Y-81645500D01*
X60931626Y-81645500D01*
X60929358Y-81645665D01*
X60929346Y-81645665D01*
X60798543Y-81655156D01*
X60731575Y-81660015D01*
X60727120Y-81660999D01*
X60727117Y-81660999D01*
X60473230Y-81717053D01*
X60473228Y-81717054D01*
X60468774Y-81718037D01*
X60217100Y-81813387D01*
X60213114Y-81815601D01*
X60213112Y-81815602D01*
X60065754Y-81897452D01*
X59981828Y-81944069D01*
X59978196Y-81946841D01*
X59771509Y-82104579D01*
X59771505Y-82104583D01*
X59767884Y-82107346D01*
X59579751Y-82299797D01*
X59577066Y-82303486D01*
X59424058Y-82513696D01*
X59424053Y-82513703D01*
X59421370Y-82517390D01*
X59296059Y-82755567D01*
X59206443Y-83009338D01*
X59205560Y-83013820D01*
X59160127Y-83244329D01*
X59154399Y-83273389D01*
X59154172Y-83277942D01*
X59154172Y-83277945D01*
X59144106Y-83480161D01*
X59141018Y-83542186D01*
X32854782Y-83542186D01*
X32858755Y-83462383D01*
X32858755Y-83462377D01*
X32858982Y-83457814D01*
X32837045Y-83227885D01*
X34742000Y-83227885D01*
X34746475Y-83243124D01*
X34747865Y-83244329D01*
X34755548Y-83246000D01*
X35477885Y-83246000D01*
X35493124Y-83241525D01*
X35494329Y-83240135D01*
X35496000Y-83232452D01*
X35496000Y-83227885D01*
X36004000Y-83227885D01*
X36008475Y-83243124D01*
X36009865Y-83244329D01*
X36017548Y-83246000D01*
X36739884Y-83246000D01*
X36755123Y-83241525D01*
X36756328Y-83240135D01*
X36757999Y-83232452D01*
X36757999Y-82984000D01*
X36778001Y-82915879D01*
X36831657Y-82869386D01*
X36883999Y-82858000D01*
X37127885Y-82858000D01*
X37143124Y-82853525D01*
X37144329Y-82852135D01*
X37146000Y-82844452D01*
X37146000Y-82839885D01*
X37654000Y-82839885D01*
X37658475Y-82855124D01*
X37659865Y-82856329D01*
X37667548Y-82858000D01*
X38594669Y-82857999D01*
X38601490Y-82857629D01*
X38652352Y-82852105D01*
X38667604Y-82848479D01*
X38788054Y-82803324D01*
X38803649Y-82794786D01*
X38905724Y-82718285D01*
X38918285Y-82705724D01*
X38994786Y-82603649D01*
X39003324Y-82588054D01*
X39048478Y-82467606D01*
X39052105Y-82452351D01*
X39057631Y-82401486D01*
X39058000Y-82394672D01*
X39058000Y-82394669D01*
X40442001Y-82394669D01*
X40442371Y-82401490D01*
X40447895Y-82452352D01*
X40451521Y-82467604D01*
X40496676Y-82588054D01*
X40505214Y-82603649D01*
X40581715Y-82705724D01*
X40594276Y-82718285D01*
X40696351Y-82794786D01*
X40711946Y-82803324D01*
X40832394Y-82848478D01*
X40847649Y-82852105D01*
X40898514Y-82857631D01*
X40905328Y-82858000D01*
X41977885Y-82858000D01*
X41993124Y-82853525D01*
X41994329Y-82852135D01*
X41996000Y-82844452D01*
X41996000Y-82839884D01*
X42504000Y-82839884D01*
X42508475Y-82855123D01*
X42509865Y-82856328D01*
X42517548Y-82857999D01*
X43594669Y-82857999D01*
X43601490Y-82857629D01*
X43652352Y-82852105D01*
X43667604Y-82848479D01*
X43788054Y-82803324D01*
X43803649Y-82794786D01*
X43905724Y-82718285D01*
X43918285Y-82705724D01*
X43994786Y-82603649D01*
X44003324Y-82588054D01*
X44048478Y-82467606D01*
X44052105Y-82452351D01*
X44057631Y-82401486D01*
X44058000Y-82394672D01*
X44058000Y-82394669D01*
X47942001Y-82394669D01*
X47942371Y-82401490D01*
X47947895Y-82452352D01*
X47951521Y-82467604D01*
X47996676Y-82588054D01*
X48005214Y-82603649D01*
X48081715Y-82705724D01*
X48094276Y-82718285D01*
X48196351Y-82794786D01*
X48211946Y-82803324D01*
X48332394Y-82848478D01*
X48347649Y-82852105D01*
X48398514Y-82857631D01*
X48405328Y-82858000D01*
X49477885Y-82858000D01*
X49493124Y-82853525D01*
X49494329Y-82852135D01*
X49496000Y-82844452D01*
X49496000Y-82839884D01*
X50004000Y-82839884D01*
X50008475Y-82855123D01*
X50009865Y-82856328D01*
X50017548Y-82857999D01*
X51094669Y-82857999D01*
X51101490Y-82857629D01*
X51152352Y-82852105D01*
X51167604Y-82848479D01*
X51288054Y-82803324D01*
X51303649Y-82794786D01*
X51405724Y-82718285D01*
X51418285Y-82705724D01*
X51494786Y-82603649D01*
X51503324Y-82588054D01*
X51548478Y-82467606D01*
X51552105Y-82452351D01*
X51557631Y-82401486D01*
X51558000Y-82394672D01*
X51558000Y-82394669D01*
X52942001Y-82394669D01*
X52942371Y-82401490D01*
X52947895Y-82452352D01*
X52951521Y-82467604D01*
X52996676Y-82588054D01*
X53005214Y-82603649D01*
X53081715Y-82705724D01*
X53094276Y-82718285D01*
X53196351Y-82794786D01*
X53211946Y-82803324D01*
X53332394Y-82848478D01*
X53347649Y-82852105D01*
X53398514Y-82857631D01*
X53405328Y-82858000D01*
X54327885Y-82857999D01*
X54343124Y-82853524D01*
X54344329Y-82852134D01*
X54346000Y-82844451D01*
X54346000Y-82839884D01*
X54854000Y-82839884D01*
X54858475Y-82855123D01*
X54859865Y-82856328D01*
X54867548Y-82857999D01*
X55116000Y-82857999D01*
X55184121Y-82878001D01*
X55230614Y-82931657D01*
X55242000Y-82983999D01*
X55242000Y-83227885D01*
X55246475Y-83243124D01*
X55247865Y-83244329D01*
X55255548Y-83246000D01*
X55977885Y-83246000D01*
X55993124Y-83241525D01*
X55994329Y-83240135D01*
X55996000Y-83232452D01*
X55996000Y-83227885D01*
X56504000Y-83227885D01*
X56508475Y-83243124D01*
X56509865Y-83244329D01*
X56517548Y-83246000D01*
X57239884Y-83246000D01*
X57255123Y-83241525D01*
X57256328Y-83240135D01*
X57257999Y-83232452D01*
X57257999Y-82398107D01*
X57258000Y-82398071D01*
X57258000Y-82122115D01*
X57253525Y-82106876D01*
X57252135Y-82105671D01*
X57244452Y-82104000D01*
X56522115Y-82104000D01*
X56506876Y-82108475D01*
X56505671Y-82109865D01*
X56504000Y-82117548D01*
X56504000Y-83227885D01*
X55996000Y-83227885D01*
X55996000Y-82122115D01*
X55991525Y-82106876D01*
X55990135Y-82105671D01*
X55982452Y-82104000D01*
X54872115Y-82104000D01*
X54856876Y-82108475D01*
X54855671Y-82109865D01*
X54854000Y-82117548D01*
X54854000Y-82839884D01*
X54346000Y-82839884D01*
X54346000Y-82122115D01*
X54341525Y-82106876D01*
X54340135Y-82105671D01*
X54332452Y-82104000D01*
X52960116Y-82104000D01*
X52944877Y-82108475D01*
X52943672Y-82109865D01*
X52942001Y-82117548D01*
X52942001Y-82394669D01*
X51558000Y-82394669D01*
X51558000Y-82122115D01*
X51553525Y-82106876D01*
X51552135Y-82105671D01*
X51544452Y-82104000D01*
X50022115Y-82104000D01*
X50006876Y-82108475D01*
X50005671Y-82109865D01*
X50004000Y-82117548D01*
X50004000Y-82839884D01*
X49496000Y-82839884D01*
X49496000Y-82122115D01*
X49491525Y-82106876D01*
X49490135Y-82105671D01*
X49482452Y-82104000D01*
X47960116Y-82104000D01*
X47944877Y-82108475D01*
X47943672Y-82109865D01*
X47942001Y-82117548D01*
X47942001Y-82394669D01*
X44058000Y-82394669D01*
X44058000Y-82122115D01*
X44053525Y-82106876D01*
X44052135Y-82105671D01*
X44044452Y-82104000D01*
X42522115Y-82104000D01*
X42506876Y-82108475D01*
X42505671Y-82109865D01*
X42504000Y-82117548D01*
X42504000Y-82839884D01*
X41996000Y-82839884D01*
X41996000Y-82122115D01*
X41991525Y-82106876D01*
X41990135Y-82105671D01*
X41982452Y-82104000D01*
X40460116Y-82104000D01*
X40444877Y-82108475D01*
X40443672Y-82109865D01*
X40442001Y-82117548D01*
X40442001Y-82394669D01*
X39058000Y-82394669D01*
X39058000Y-82122115D01*
X39053525Y-82106876D01*
X39052135Y-82105671D01*
X39044452Y-82104000D01*
X37672115Y-82104000D01*
X37656876Y-82108475D01*
X37655671Y-82109865D01*
X37654000Y-82117548D01*
X37654000Y-82839885D01*
X37146000Y-82839885D01*
X37146000Y-82122115D01*
X37141525Y-82106876D01*
X37140135Y-82105671D01*
X37132452Y-82104000D01*
X36022115Y-82104000D01*
X36006876Y-82108475D01*
X36005671Y-82109865D01*
X36004000Y-82117548D01*
X36004000Y-83227885D01*
X35496000Y-83227885D01*
X35496000Y-82122115D01*
X35491525Y-82106876D01*
X35490135Y-82105671D01*
X35482452Y-82104000D01*
X34760116Y-82104000D01*
X34744877Y-82108475D01*
X34743672Y-82109865D01*
X34742001Y-82117548D01*
X34742001Y-82301895D01*
X34742000Y-82301927D01*
X34742000Y-83227885D01*
X32837045Y-83227885D01*
X32833421Y-83189900D01*
X32827905Y-83167354D01*
X32770539Y-82932920D01*
X32769453Y-82928482D01*
X32668417Y-82679037D01*
X32532431Y-82446790D01*
X32364342Y-82236605D01*
X32167673Y-82052887D01*
X31946543Y-81899484D01*
X31705584Y-81779609D01*
X31701250Y-81778188D01*
X31701247Y-81778187D01*
X31454177Y-81697193D01*
X31454171Y-81697192D01*
X31449844Y-81695773D01*
X31445352Y-81694993D01*
X31188462Y-81650389D01*
X31188454Y-81650388D01*
X31184681Y-81649733D01*
X31174718Y-81649237D01*
X31101223Y-81645578D01*
X31101215Y-81645578D01*
X31099652Y-81645500D01*
X30931626Y-81645500D01*
X30929358Y-81645665D01*
X30929346Y-81645665D01*
X30798543Y-81655156D01*
X30731575Y-81660015D01*
X30727120Y-81660999D01*
X30727117Y-81660999D01*
X30473230Y-81717053D01*
X30473228Y-81717054D01*
X30468774Y-81718037D01*
X30217100Y-81813387D01*
X30213114Y-81815601D01*
X30213112Y-81815602D01*
X30065754Y-81897452D01*
X29981828Y-81944069D01*
X29978196Y-81946841D01*
X29771509Y-82104579D01*
X29771505Y-82104583D01*
X29767884Y-82107346D01*
X29579751Y-82299797D01*
X29577066Y-82303486D01*
X29424058Y-82513696D01*
X29424053Y-82513703D01*
X29421370Y-82517390D01*
X29296059Y-82755567D01*
X29206443Y-83009338D01*
X29205560Y-83013820D01*
X29160127Y-83244329D01*
X29154399Y-83273389D01*
X29154172Y-83277942D01*
X29154172Y-83277945D01*
X29144106Y-83480161D01*
X29141018Y-83542186D01*
X27754500Y-83542186D01*
X27754500Y-83537476D01*
X27756921Y-83512894D01*
X27757065Y-83512170D01*
X27759486Y-83500000D01*
X27757065Y-83487828D01*
X27757065Y-83475420D01*
X27757156Y-83475420D01*
X27756364Y-83464433D01*
X27756472Y-83462383D01*
X27771933Y-83167353D01*
X27773311Y-83154237D01*
X27824389Y-82831745D01*
X27827131Y-82818845D01*
X27911638Y-82503459D01*
X27915714Y-82490916D01*
X28032720Y-82186106D01*
X28038084Y-82174057D01*
X28186318Y-81883133D01*
X28192912Y-81871712D01*
X28370742Y-81597876D01*
X28378495Y-81587206D01*
X28386043Y-81577885D01*
X34742000Y-81577885D01*
X34746475Y-81593124D01*
X34747865Y-81594329D01*
X34755548Y-81596000D01*
X35477885Y-81596000D01*
X35493124Y-81591525D01*
X35494329Y-81590135D01*
X35496000Y-81582452D01*
X35496000Y-81577885D01*
X36004000Y-81577885D01*
X36008475Y-81593124D01*
X36009865Y-81594329D01*
X36017548Y-81596000D01*
X37127885Y-81596000D01*
X37143124Y-81591525D01*
X37144329Y-81590135D01*
X37146000Y-81582452D01*
X37146000Y-81577885D01*
X37654000Y-81577885D01*
X37658475Y-81593124D01*
X37659865Y-81594329D01*
X37667548Y-81596000D01*
X39039884Y-81596000D01*
X39055123Y-81591525D01*
X39056328Y-81590135D01*
X39057999Y-81582452D01*
X39057999Y-81577885D01*
X40442000Y-81577885D01*
X40446475Y-81593124D01*
X40447865Y-81594329D01*
X40455548Y-81596000D01*
X41977885Y-81596000D01*
X41993124Y-81591525D01*
X41994329Y-81590135D01*
X41996000Y-81582452D01*
X41996000Y-81577885D01*
X42504000Y-81577885D01*
X42508475Y-81593124D01*
X42509865Y-81594329D01*
X42517548Y-81596000D01*
X44039884Y-81596000D01*
X44055123Y-81591525D01*
X44056328Y-81590135D01*
X44057999Y-81582452D01*
X44057999Y-81577885D01*
X47942000Y-81577885D01*
X47946475Y-81593124D01*
X47947865Y-81594329D01*
X47955548Y-81596000D01*
X49477885Y-81596000D01*
X49493124Y-81591525D01*
X49494329Y-81590135D01*
X49496000Y-81582452D01*
X49496000Y-81577885D01*
X50004000Y-81577885D01*
X50008475Y-81593124D01*
X50009865Y-81594329D01*
X50017548Y-81596000D01*
X51539884Y-81596000D01*
X51555123Y-81591525D01*
X51556328Y-81590135D01*
X51557999Y-81582452D01*
X51557999Y-81577885D01*
X52942000Y-81577885D01*
X52946475Y-81593124D01*
X52947865Y-81594329D01*
X52955548Y-81596000D01*
X54327885Y-81596000D01*
X54343124Y-81591525D01*
X54344329Y-81590135D01*
X54346000Y-81582452D01*
X54346000Y-81577885D01*
X54854000Y-81577885D01*
X54858475Y-81593124D01*
X54859865Y-81594329D01*
X54867548Y-81596000D01*
X55977885Y-81596000D01*
X55993124Y-81591525D01*
X55994329Y-81590135D01*
X55996000Y-81582452D01*
X55996000Y-81577885D01*
X56504000Y-81577885D01*
X56508475Y-81593124D01*
X56509865Y-81594329D01*
X56517548Y-81596000D01*
X57239884Y-81596000D01*
X57255123Y-81591525D01*
X57256328Y-81590135D01*
X57257999Y-81582452D01*
X57257999Y-81305331D01*
X57257629Y-81298510D01*
X57252105Y-81247648D01*
X57248479Y-81232396D01*
X57203324Y-81111946D01*
X57194786Y-81096351D01*
X57118285Y-80994276D01*
X57105724Y-80981715D01*
X57003649Y-80905214D01*
X56988054Y-80896676D01*
X56867606Y-80851522D01*
X56852351Y-80847895D01*
X56801486Y-80842369D01*
X56794672Y-80842000D01*
X56522115Y-80842000D01*
X56506876Y-80846475D01*
X56505671Y-80847865D01*
X56504000Y-80855548D01*
X56504000Y-81577885D01*
X55996000Y-81577885D01*
X55996000Y-80860116D01*
X55991525Y-80844877D01*
X55990135Y-80843672D01*
X55982452Y-80842001D01*
X55798105Y-80842001D01*
X55798073Y-80842000D01*
X54872115Y-80842000D01*
X54856876Y-80846475D01*
X54855671Y-80847865D01*
X54854000Y-80855548D01*
X54854000Y-81577885D01*
X54346000Y-81577885D01*
X54346000Y-80860116D01*
X54341525Y-80844877D01*
X54340135Y-80843672D01*
X54332452Y-80842001D01*
X53405331Y-80842001D01*
X53398510Y-80842371D01*
X53347648Y-80847895D01*
X53332396Y-80851521D01*
X53211946Y-80896676D01*
X53196351Y-80905214D01*
X53094276Y-80981715D01*
X53081715Y-80994276D01*
X53005214Y-81096351D01*
X52996676Y-81111946D01*
X52951522Y-81232394D01*
X52947895Y-81247649D01*
X52942369Y-81298514D01*
X52942000Y-81305328D01*
X52942000Y-81577885D01*
X51557999Y-81577885D01*
X51557999Y-81305331D01*
X51557629Y-81298510D01*
X51552105Y-81247648D01*
X51548479Y-81232396D01*
X51503324Y-81111946D01*
X51494786Y-81096351D01*
X51418285Y-80994276D01*
X51405724Y-80981715D01*
X51303649Y-80905214D01*
X51288054Y-80896676D01*
X51167606Y-80851522D01*
X51152351Y-80847895D01*
X51101486Y-80842369D01*
X51094672Y-80842000D01*
X50022115Y-80842000D01*
X50006876Y-80846475D01*
X50005671Y-80847865D01*
X50004000Y-80855548D01*
X50004000Y-81577885D01*
X49496000Y-81577885D01*
X49496000Y-80860116D01*
X49491525Y-80844877D01*
X49490135Y-80843672D01*
X49482452Y-80842001D01*
X48405331Y-80842001D01*
X48398510Y-80842371D01*
X48347648Y-80847895D01*
X48332396Y-80851521D01*
X48211946Y-80896676D01*
X48196351Y-80905214D01*
X48094276Y-80981715D01*
X48081715Y-80994276D01*
X48005214Y-81096351D01*
X47996676Y-81111946D01*
X47951522Y-81232394D01*
X47947895Y-81247649D01*
X47942369Y-81298514D01*
X47942000Y-81305328D01*
X47942000Y-81577885D01*
X44057999Y-81577885D01*
X44057999Y-81305331D01*
X44057629Y-81298510D01*
X44052105Y-81247648D01*
X44048479Y-81232396D01*
X44003324Y-81111946D01*
X43994786Y-81096351D01*
X43918285Y-80994276D01*
X43905724Y-80981715D01*
X43803649Y-80905214D01*
X43788054Y-80896676D01*
X43667606Y-80851522D01*
X43652351Y-80847895D01*
X43601486Y-80842369D01*
X43594672Y-80842000D01*
X42522115Y-80842000D01*
X42506876Y-80846475D01*
X42505671Y-80847865D01*
X42504000Y-80855548D01*
X42504000Y-81577885D01*
X41996000Y-81577885D01*
X41996000Y-80860116D01*
X41991525Y-80844877D01*
X41990135Y-80843672D01*
X41982452Y-80842001D01*
X40905331Y-80842001D01*
X40898510Y-80842371D01*
X40847648Y-80847895D01*
X40832396Y-80851521D01*
X40711946Y-80896676D01*
X40696351Y-80905214D01*
X40594276Y-80981715D01*
X40581715Y-80994276D01*
X40505214Y-81096351D01*
X40496676Y-81111946D01*
X40451522Y-81232394D01*
X40447895Y-81247649D01*
X40442369Y-81298514D01*
X40442000Y-81305328D01*
X40442000Y-81577885D01*
X39057999Y-81577885D01*
X39057999Y-81305331D01*
X39057629Y-81298510D01*
X39052105Y-81247648D01*
X39048479Y-81232396D01*
X39003324Y-81111946D01*
X38994786Y-81096351D01*
X38918285Y-80994276D01*
X38905724Y-80981715D01*
X38803649Y-80905214D01*
X38788054Y-80896676D01*
X38667606Y-80851522D01*
X38652351Y-80847895D01*
X38601486Y-80842369D01*
X38594672Y-80842000D01*
X37672115Y-80842000D01*
X37656876Y-80846475D01*
X37655671Y-80847865D01*
X37654000Y-80855548D01*
X37654000Y-81577885D01*
X37146000Y-81577885D01*
X37146000Y-80860116D01*
X37141525Y-80844877D01*
X37140135Y-80843672D01*
X37132452Y-80842001D01*
X36298107Y-80842001D01*
X36298071Y-80842000D01*
X36022115Y-80842000D01*
X36006876Y-80846475D01*
X36005671Y-80847865D01*
X36004000Y-80855548D01*
X36004000Y-81577885D01*
X35496000Y-81577885D01*
X35496000Y-80860116D01*
X35491525Y-80844877D01*
X35490135Y-80843672D01*
X35482452Y-80842001D01*
X35205331Y-80842001D01*
X35198510Y-80842371D01*
X35147648Y-80847895D01*
X35132396Y-80851521D01*
X35011946Y-80896676D01*
X34996351Y-80905214D01*
X34894276Y-80981715D01*
X34881715Y-80994276D01*
X34805214Y-81096351D01*
X34796676Y-81111946D01*
X34751522Y-81232394D01*
X34747895Y-81247649D01*
X34742369Y-81298514D01*
X34742000Y-81305328D01*
X34742000Y-81577885D01*
X28386043Y-81577885D01*
X28583968Y-81333468D01*
X28592793Y-81323667D01*
X28823667Y-81092793D01*
X28833468Y-81083968D01*
X29087206Y-80878495D01*
X29097876Y-80870742D01*
X29371712Y-80692912D01*
X29383133Y-80686318D01*
X29674057Y-80538084D01*
X29686106Y-80532720D01*
X29990916Y-80415714D01*
X30003459Y-80411638D01*
X30318845Y-80327131D01*
X30331745Y-80324389D01*
X30654237Y-80273311D01*
X30667353Y-80271933D01*
X30964435Y-80256364D01*
X30975420Y-80257156D01*
X30975420Y-80257065D01*
X30987828Y-80257065D01*
X31000000Y-80259486D01*
X31012897Y-80256921D01*
X31037476Y-80254500D01*
X60962524Y-80254500D01*
X60987103Y-80256921D01*
G37*
%TD.AperFunction*%
%TD*%
%TA.AperFunction,Conductor*%
%TO.N,Net-(JP2-Pad2)*%
G36*
X58807336Y-91300863D02*
G01*
X60388724Y-91486909D01*
X60454039Y-91514732D01*
X60493944Y-91573453D01*
X60500000Y-91612045D01*
X60500000Y-92587955D01*
X60479998Y-92656076D01*
X60426342Y-92702569D01*
X60388725Y-92713091D01*
X58807336Y-92899137D01*
X58792614Y-92900000D01*
X57926000Y-92900000D01*
X57857879Y-92879998D01*
X57811386Y-92826342D01*
X57800000Y-92774000D01*
X57800000Y-91426000D01*
X57820002Y-91357879D01*
X57873658Y-91311386D01*
X57926000Y-91300000D01*
X58792613Y-91300000D01*
X58807336Y-91300863D01*
G37*
%TD.AperFunction*%
%TD*%
M02*
