%TF.GenerationSoftware,KiCad,Pcbnew,6.0.6*%
%TF.CreationDate,2022-08-30T17:07:56+02:00*%
%TF.ProjectId,rf_biscuit,72665f62-6973-4637-9569-742e6b696361,rev?*%
%TF.SameCoordinates,Original*%
%TF.FileFunction,Copper,L2,Bot*%
%TF.FilePolarity,Positive*%
%FSLAX46Y46*%
G04 Gerber Fmt 4.6, Leading zero omitted, Abs format (unit mm)*
G04 Created by KiCad (PCBNEW 6.0.6) date 2022-08-30 17:07:56*
%MOMM*%
%LPD*%
G01*
G04 APERTURE LIST*
%TA.AperFunction,SMDPad,CuDef*%
%ADD10R,4.200000X1.350000*%
%TD*%
%TA.AperFunction,ViaPad*%
%ADD11C,0.600000*%
%TD*%
G04 APERTURE END LIST*
D10*
%TO.P,P2,2,Ext*%
%TO.N,GND*%
X62000000Y-89275000D03*
X62000000Y-94925000D03*
%TD*%
%TO.P,P1,2,Ext*%
%TO.N,GND*%
X30000000Y-94825000D03*
X30000000Y-89175000D03*
%TD*%
D11*
%TO.N,GND*%
X41200000Y-96500000D03*
X39700000Y-88800000D03*
X39700000Y-95300000D03*
X46000000Y-96500000D03*
X50700000Y-96500000D03*
X46000000Y-87700000D03*
X41200000Y-87700000D03*
X54300000Y-87400000D03*
X52400000Y-89100000D03*
X54300000Y-96600000D03*
X52400000Y-95400000D03*
X37700000Y-96500000D03*
X50700000Y-87700000D03*
X37700000Y-87500000D03*
%TD*%
%TA.AperFunction,Conductor*%
%TO.N,GND*%
G36*
X60987103Y-80256921D02*
G01*
X61000000Y-80259486D01*
X61012172Y-80257065D01*
X61024580Y-80257065D01*
X61024580Y-80257156D01*
X61035565Y-80256364D01*
X61332647Y-80271933D01*
X61345763Y-80273311D01*
X61668255Y-80324389D01*
X61681155Y-80327131D01*
X61996541Y-80411638D01*
X62009084Y-80415714D01*
X62313894Y-80532720D01*
X62325943Y-80538084D01*
X62616867Y-80686318D01*
X62628288Y-80692912D01*
X62902124Y-80870742D01*
X62912794Y-80878495D01*
X63166532Y-81083968D01*
X63176333Y-81092793D01*
X63407207Y-81323667D01*
X63416032Y-81333468D01*
X63621505Y-81587206D01*
X63629258Y-81597876D01*
X63807088Y-81871712D01*
X63813682Y-81883133D01*
X63961916Y-82174057D01*
X63967280Y-82186106D01*
X64084286Y-82490916D01*
X64088362Y-82503459D01*
X64172869Y-82818845D01*
X64175611Y-82831745D01*
X64226689Y-83154237D01*
X64228067Y-83167353D01*
X64243529Y-83462383D01*
X64243636Y-83464433D01*
X64242844Y-83475420D01*
X64242935Y-83475420D01*
X64242935Y-83487828D01*
X64240514Y-83500000D01*
X64242935Y-83512170D01*
X64243079Y-83512894D01*
X64245500Y-83537476D01*
X64245500Y-100462524D01*
X64243079Y-100487103D01*
X64240514Y-100500000D01*
X64242935Y-100512172D01*
X64242935Y-100524580D01*
X64242844Y-100524580D01*
X64243636Y-100535565D01*
X64229016Y-100814540D01*
X64228067Y-100832646D01*
X64226689Y-100845763D01*
X64175611Y-101168255D01*
X64172869Y-101181155D01*
X64088362Y-101496541D01*
X64084286Y-101509084D01*
X63967280Y-101813894D01*
X63961916Y-101825943D01*
X63813682Y-102116867D01*
X63807088Y-102128288D01*
X63629258Y-102402124D01*
X63621505Y-102412794D01*
X63416032Y-102666532D01*
X63407207Y-102676333D01*
X63176333Y-102907207D01*
X63166532Y-102916032D01*
X62912794Y-103121505D01*
X62902124Y-103129258D01*
X62628288Y-103307088D01*
X62616867Y-103313682D01*
X62325943Y-103461916D01*
X62313894Y-103467280D01*
X62009084Y-103584286D01*
X61996541Y-103588362D01*
X61681155Y-103672869D01*
X61668255Y-103675611D01*
X61345763Y-103726689D01*
X61332647Y-103728067D01*
X61035565Y-103743636D01*
X61024580Y-103742844D01*
X61024580Y-103742935D01*
X61012172Y-103742935D01*
X61000000Y-103740514D01*
X60987103Y-103743079D01*
X60962524Y-103745500D01*
X31037476Y-103745500D01*
X31012897Y-103743079D01*
X31000000Y-103740514D01*
X30987828Y-103742935D01*
X30975420Y-103742935D01*
X30975420Y-103742844D01*
X30964435Y-103743636D01*
X30667353Y-103728067D01*
X30654237Y-103726689D01*
X30331745Y-103675611D01*
X30318845Y-103672869D01*
X30003459Y-103588362D01*
X29990916Y-103584286D01*
X29686106Y-103467280D01*
X29674057Y-103461916D01*
X29383133Y-103313682D01*
X29371712Y-103307088D01*
X29097876Y-103129258D01*
X29087206Y-103121505D01*
X28833468Y-102916032D01*
X28823667Y-102907207D01*
X28592793Y-102676333D01*
X28583968Y-102666532D01*
X28378495Y-102412794D01*
X28370742Y-102402124D01*
X28192912Y-102128288D01*
X28186318Y-102116867D01*
X28038084Y-101825943D01*
X28032720Y-101813894D01*
X27915714Y-101509084D01*
X27911638Y-101496541D01*
X27827131Y-101181155D01*
X27824389Y-101168255D01*
X27773311Y-100845763D01*
X27771933Y-100832646D01*
X27770984Y-100814540D01*
X27756711Y-100542186D01*
X29141018Y-100542186D01*
X29166579Y-100810100D01*
X29167664Y-100814534D01*
X29167665Y-100814540D01*
X29209665Y-100986180D01*
X29230547Y-101071518D01*
X29331583Y-101320963D01*
X29467569Y-101553210D01*
X29635658Y-101763395D01*
X29832327Y-101947113D01*
X30053457Y-102100516D01*
X30294416Y-102220391D01*
X30298750Y-102221812D01*
X30298753Y-102221813D01*
X30545823Y-102302807D01*
X30545829Y-102302808D01*
X30550156Y-102304227D01*
X30554647Y-102305007D01*
X30554648Y-102305007D01*
X30811538Y-102349611D01*
X30811546Y-102349612D01*
X30815319Y-102350267D01*
X30819156Y-102350458D01*
X30898777Y-102354422D01*
X30898785Y-102354422D01*
X30900348Y-102354500D01*
X31068374Y-102354500D01*
X31070642Y-102354335D01*
X31070654Y-102354335D01*
X31201457Y-102344844D01*
X31268425Y-102339985D01*
X31272880Y-102339001D01*
X31272883Y-102339001D01*
X31526770Y-102282947D01*
X31526772Y-102282946D01*
X31531226Y-102281963D01*
X31782900Y-102186613D01*
X31908467Y-102116867D01*
X32014179Y-102058149D01*
X32014180Y-102058148D01*
X32018172Y-102055931D01*
X32172020Y-101938518D01*
X32228491Y-101895421D01*
X32228495Y-101895417D01*
X32232116Y-101892654D01*
X32420249Y-101700203D01*
X32527242Y-101553210D01*
X32575942Y-101486304D01*
X32575947Y-101486297D01*
X32578630Y-101482610D01*
X32703941Y-101244433D01*
X32793557Y-100990662D01*
X32824702Y-100832646D01*
X32844720Y-100731083D01*
X32844721Y-100731077D01*
X32845601Y-100726611D01*
X32854782Y-100542186D01*
X59141018Y-100542186D01*
X59166579Y-100810100D01*
X59167664Y-100814534D01*
X59167665Y-100814540D01*
X59209665Y-100986180D01*
X59230547Y-101071518D01*
X59331583Y-101320963D01*
X59467569Y-101553210D01*
X59635658Y-101763395D01*
X59832327Y-101947113D01*
X60053457Y-102100516D01*
X60294416Y-102220391D01*
X60298750Y-102221812D01*
X60298753Y-102221813D01*
X60545823Y-102302807D01*
X60545829Y-102302808D01*
X60550156Y-102304227D01*
X60554647Y-102305007D01*
X60554648Y-102305007D01*
X60811538Y-102349611D01*
X60811546Y-102349612D01*
X60815319Y-102350267D01*
X60819156Y-102350458D01*
X60898777Y-102354422D01*
X60898785Y-102354422D01*
X60900348Y-102354500D01*
X61068374Y-102354500D01*
X61070642Y-102354335D01*
X61070654Y-102354335D01*
X61201457Y-102344844D01*
X61268425Y-102339985D01*
X61272880Y-102339001D01*
X61272883Y-102339001D01*
X61526770Y-102282947D01*
X61526772Y-102282946D01*
X61531226Y-102281963D01*
X61782900Y-102186613D01*
X61908467Y-102116867D01*
X62014179Y-102058149D01*
X62014180Y-102058148D01*
X62018172Y-102055931D01*
X62172020Y-101938518D01*
X62228491Y-101895421D01*
X62228495Y-101895417D01*
X62232116Y-101892654D01*
X62420249Y-101700203D01*
X62527242Y-101553210D01*
X62575942Y-101486304D01*
X62575947Y-101486297D01*
X62578630Y-101482610D01*
X62703941Y-101244433D01*
X62793557Y-100990662D01*
X62824702Y-100832646D01*
X62844720Y-100731083D01*
X62844721Y-100731077D01*
X62845601Y-100726611D01*
X62854782Y-100542186D01*
X62858755Y-100462383D01*
X62858755Y-100462377D01*
X62858982Y-100457814D01*
X62833421Y-100189900D01*
X62769453Y-99928482D01*
X62668417Y-99679037D01*
X62532431Y-99446790D01*
X62364342Y-99236605D01*
X62167673Y-99052887D01*
X61946543Y-98899484D01*
X61705584Y-98779609D01*
X61701250Y-98778188D01*
X61701247Y-98778187D01*
X61454177Y-98697193D01*
X61454171Y-98697192D01*
X61449844Y-98695773D01*
X61445352Y-98694993D01*
X61188462Y-98650389D01*
X61188454Y-98650388D01*
X61184681Y-98649733D01*
X61174718Y-98649237D01*
X61101223Y-98645578D01*
X61101215Y-98645578D01*
X61099652Y-98645500D01*
X60931626Y-98645500D01*
X60929358Y-98645665D01*
X60929346Y-98645665D01*
X60798543Y-98655156D01*
X60731575Y-98660015D01*
X60727120Y-98660999D01*
X60727117Y-98660999D01*
X60473230Y-98717053D01*
X60473228Y-98717054D01*
X60468774Y-98718037D01*
X60217100Y-98813387D01*
X59981828Y-98944069D01*
X59978196Y-98946841D01*
X59771509Y-99104579D01*
X59771505Y-99104583D01*
X59767884Y-99107346D01*
X59579751Y-99299797D01*
X59577066Y-99303486D01*
X59424058Y-99513696D01*
X59424053Y-99513703D01*
X59421370Y-99517390D01*
X59296059Y-99755567D01*
X59206443Y-100009338D01*
X59205560Y-100013820D01*
X59170855Y-100189900D01*
X59154399Y-100273389D01*
X59154172Y-100277942D01*
X59154172Y-100277945D01*
X59141348Y-100535567D01*
X59141018Y-100542186D01*
X32854782Y-100542186D01*
X32858755Y-100462383D01*
X32858755Y-100462377D01*
X32858982Y-100457814D01*
X32833421Y-100189900D01*
X32769453Y-99928482D01*
X32668417Y-99679037D01*
X32532431Y-99446790D01*
X32364342Y-99236605D01*
X32167673Y-99052887D01*
X31946543Y-98899484D01*
X31705584Y-98779609D01*
X31701250Y-98778188D01*
X31701247Y-98778187D01*
X31454177Y-98697193D01*
X31454171Y-98697192D01*
X31449844Y-98695773D01*
X31445352Y-98694993D01*
X31188462Y-98650389D01*
X31188454Y-98650388D01*
X31184681Y-98649733D01*
X31174718Y-98649237D01*
X31101223Y-98645578D01*
X31101215Y-98645578D01*
X31099652Y-98645500D01*
X30931626Y-98645500D01*
X30929358Y-98645665D01*
X30929346Y-98645665D01*
X30798543Y-98655156D01*
X30731575Y-98660015D01*
X30727120Y-98660999D01*
X30727117Y-98660999D01*
X30473230Y-98717053D01*
X30473228Y-98717054D01*
X30468774Y-98718037D01*
X30217100Y-98813387D01*
X29981828Y-98944069D01*
X29978196Y-98946841D01*
X29771509Y-99104579D01*
X29771505Y-99104583D01*
X29767884Y-99107346D01*
X29579751Y-99299797D01*
X29577066Y-99303486D01*
X29424058Y-99513696D01*
X29424053Y-99513703D01*
X29421370Y-99517390D01*
X29296059Y-99755567D01*
X29206443Y-100009338D01*
X29205560Y-100013820D01*
X29170855Y-100189900D01*
X29154399Y-100273389D01*
X29154172Y-100277942D01*
X29154172Y-100277945D01*
X29141348Y-100535567D01*
X29141018Y-100542186D01*
X27756711Y-100542186D01*
X27756364Y-100535565D01*
X27757156Y-100524580D01*
X27757065Y-100524580D01*
X27757065Y-100512172D01*
X27759486Y-100500000D01*
X27756921Y-100487103D01*
X27754500Y-100462524D01*
X27754500Y-83542186D01*
X29141018Y-83542186D01*
X29166579Y-83810100D01*
X29230547Y-84071518D01*
X29331583Y-84320963D01*
X29467569Y-84553210D01*
X29635658Y-84763395D01*
X29832327Y-84947113D01*
X30053457Y-85100516D01*
X30294416Y-85220391D01*
X30298750Y-85221812D01*
X30298753Y-85221813D01*
X30545823Y-85302807D01*
X30545829Y-85302808D01*
X30550156Y-85304227D01*
X30554647Y-85305007D01*
X30554648Y-85305007D01*
X30811538Y-85349611D01*
X30811546Y-85349612D01*
X30815319Y-85350267D01*
X30819156Y-85350458D01*
X30898777Y-85354422D01*
X30898785Y-85354422D01*
X30900348Y-85354500D01*
X31068374Y-85354500D01*
X31070642Y-85354335D01*
X31070654Y-85354335D01*
X31201457Y-85344844D01*
X31268425Y-85339985D01*
X31272880Y-85339001D01*
X31272883Y-85339001D01*
X31526770Y-85282947D01*
X31526772Y-85282946D01*
X31531226Y-85281963D01*
X31782900Y-85186613D01*
X32018172Y-85055931D01*
X32164842Y-84943996D01*
X32228491Y-84895421D01*
X32228495Y-84895417D01*
X32232116Y-84892654D01*
X32420249Y-84700203D01*
X32527242Y-84553210D01*
X32575942Y-84486304D01*
X32575947Y-84486297D01*
X32578630Y-84482610D01*
X32703941Y-84244433D01*
X32793557Y-83990662D01*
X32818688Y-83863156D01*
X32844720Y-83731083D01*
X32844721Y-83731077D01*
X32845601Y-83726611D01*
X32854782Y-83542186D01*
X59141018Y-83542186D01*
X59166579Y-83810100D01*
X59230547Y-84071518D01*
X59331583Y-84320963D01*
X59467569Y-84553210D01*
X59635658Y-84763395D01*
X59832327Y-84947113D01*
X60053457Y-85100516D01*
X60294416Y-85220391D01*
X60298750Y-85221812D01*
X60298753Y-85221813D01*
X60545823Y-85302807D01*
X60545829Y-85302808D01*
X60550156Y-85304227D01*
X60554647Y-85305007D01*
X60554648Y-85305007D01*
X60811538Y-85349611D01*
X60811546Y-85349612D01*
X60815319Y-85350267D01*
X60819156Y-85350458D01*
X60898777Y-85354422D01*
X60898785Y-85354422D01*
X60900348Y-85354500D01*
X61068374Y-85354500D01*
X61070642Y-85354335D01*
X61070654Y-85354335D01*
X61201457Y-85344844D01*
X61268425Y-85339985D01*
X61272880Y-85339001D01*
X61272883Y-85339001D01*
X61526770Y-85282947D01*
X61526772Y-85282946D01*
X61531226Y-85281963D01*
X61782900Y-85186613D01*
X62018172Y-85055931D01*
X62164842Y-84943996D01*
X62228491Y-84895421D01*
X62228495Y-84895417D01*
X62232116Y-84892654D01*
X62420249Y-84700203D01*
X62527242Y-84553210D01*
X62575942Y-84486304D01*
X62575947Y-84486297D01*
X62578630Y-84482610D01*
X62703941Y-84244433D01*
X62793557Y-83990662D01*
X62818688Y-83863156D01*
X62844720Y-83731083D01*
X62844721Y-83731077D01*
X62845601Y-83726611D01*
X62854782Y-83542186D01*
X62858755Y-83462383D01*
X62858755Y-83462377D01*
X62858982Y-83457814D01*
X62833421Y-83189900D01*
X62827905Y-83167354D01*
X62770539Y-82932920D01*
X62769453Y-82928482D01*
X62668417Y-82679037D01*
X62532431Y-82446790D01*
X62364342Y-82236605D01*
X62167673Y-82052887D01*
X61946543Y-81899484D01*
X61705584Y-81779609D01*
X61701250Y-81778188D01*
X61701247Y-81778187D01*
X61454177Y-81697193D01*
X61454171Y-81697192D01*
X61449844Y-81695773D01*
X61445352Y-81694993D01*
X61188462Y-81650389D01*
X61188454Y-81650388D01*
X61184681Y-81649733D01*
X61174718Y-81649237D01*
X61101223Y-81645578D01*
X61101215Y-81645578D01*
X61099652Y-81645500D01*
X60931626Y-81645500D01*
X60929358Y-81645665D01*
X60929346Y-81645665D01*
X60798543Y-81655156D01*
X60731575Y-81660015D01*
X60727120Y-81660999D01*
X60727117Y-81660999D01*
X60473230Y-81717053D01*
X60473228Y-81717054D01*
X60468774Y-81718037D01*
X60217100Y-81813387D01*
X60213114Y-81815601D01*
X60213112Y-81815602D01*
X60065754Y-81897452D01*
X59981828Y-81944069D01*
X59978196Y-81946841D01*
X59771509Y-82104579D01*
X59771505Y-82104583D01*
X59767884Y-82107346D01*
X59579751Y-82299797D01*
X59577066Y-82303486D01*
X59424058Y-82513696D01*
X59424053Y-82513703D01*
X59421370Y-82517390D01*
X59296059Y-82755567D01*
X59206443Y-83009338D01*
X59205560Y-83013820D01*
X59170855Y-83189900D01*
X59154399Y-83273389D01*
X59154172Y-83277942D01*
X59154172Y-83277945D01*
X59144106Y-83480161D01*
X59141018Y-83542186D01*
X32854782Y-83542186D01*
X32858755Y-83462383D01*
X32858755Y-83462377D01*
X32858982Y-83457814D01*
X32833421Y-83189900D01*
X32827905Y-83167354D01*
X32770539Y-82932920D01*
X32769453Y-82928482D01*
X32668417Y-82679037D01*
X32532431Y-82446790D01*
X32364342Y-82236605D01*
X32167673Y-82052887D01*
X31946543Y-81899484D01*
X31705584Y-81779609D01*
X31701250Y-81778188D01*
X31701247Y-81778187D01*
X31454177Y-81697193D01*
X31454171Y-81697192D01*
X31449844Y-81695773D01*
X31445352Y-81694993D01*
X31188462Y-81650389D01*
X31188454Y-81650388D01*
X31184681Y-81649733D01*
X31174718Y-81649237D01*
X31101223Y-81645578D01*
X31101215Y-81645578D01*
X31099652Y-81645500D01*
X30931626Y-81645500D01*
X30929358Y-81645665D01*
X30929346Y-81645665D01*
X30798543Y-81655156D01*
X30731575Y-81660015D01*
X30727120Y-81660999D01*
X30727117Y-81660999D01*
X30473230Y-81717053D01*
X30473228Y-81717054D01*
X30468774Y-81718037D01*
X30217100Y-81813387D01*
X30213114Y-81815601D01*
X30213112Y-81815602D01*
X30065754Y-81897452D01*
X29981828Y-81944069D01*
X29978196Y-81946841D01*
X29771509Y-82104579D01*
X29771505Y-82104583D01*
X29767884Y-82107346D01*
X29579751Y-82299797D01*
X29577066Y-82303486D01*
X29424058Y-82513696D01*
X29424053Y-82513703D01*
X29421370Y-82517390D01*
X29296059Y-82755567D01*
X29206443Y-83009338D01*
X29205560Y-83013820D01*
X29170855Y-83189900D01*
X29154399Y-83273389D01*
X29154172Y-83277942D01*
X29154172Y-83277945D01*
X29144106Y-83480161D01*
X29141018Y-83542186D01*
X27754500Y-83542186D01*
X27754500Y-83537476D01*
X27756921Y-83512894D01*
X27757065Y-83512170D01*
X27759486Y-83500000D01*
X27757065Y-83487828D01*
X27757065Y-83475420D01*
X27757156Y-83475420D01*
X27756364Y-83464433D01*
X27756472Y-83462383D01*
X27771933Y-83167353D01*
X27773311Y-83154237D01*
X27824389Y-82831745D01*
X27827131Y-82818845D01*
X27911638Y-82503459D01*
X27915714Y-82490916D01*
X28032720Y-82186106D01*
X28038084Y-82174057D01*
X28186318Y-81883133D01*
X28192912Y-81871712D01*
X28370742Y-81597876D01*
X28378495Y-81587206D01*
X28583968Y-81333468D01*
X28592793Y-81323667D01*
X28823667Y-81092793D01*
X28833468Y-81083968D01*
X29087206Y-80878495D01*
X29097876Y-80870742D01*
X29371712Y-80692912D01*
X29383133Y-80686318D01*
X29674057Y-80538084D01*
X29686106Y-80532720D01*
X29990916Y-80415714D01*
X30003459Y-80411638D01*
X30318845Y-80327131D01*
X30331745Y-80324389D01*
X30654237Y-80273311D01*
X30667353Y-80271933D01*
X30964435Y-80256364D01*
X30975420Y-80257156D01*
X30975420Y-80257065D01*
X30987828Y-80257065D01*
X31000000Y-80259486D01*
X31012897Y-80256921D01*
X31037476Y-80254500D01*
X60962524Y-80254500D01*
X60987103Y-80256921D01*
G37*
%TD.AperFunction*%
%TD*%
M02*
